<?xml version="1.0" standalone="no"?>
<!DOCTYPE svg PUBLIC "-//W3C//DTD SVG 20010904//EN"
 "http://www.w3.org/TR/2001/REC-SVG-20010904/DTD/svg10.dtd">
<svg version="1.0" xmlns="http://www.w3.org/2000/svg"
 width="128.000000pt" height="128.000000pt" viewBox="0 0 128.000000 128.000000"
 preserveAspectRatio="xMidYMid meet">
<metadata>
Created by potrace 1.11, written by Peter Selinger 2001-2013
</metadata>
<g transform="translate(0.000000,128.000000) scale(0.100000,-0.100000)"
fill="#000000" stroke="none">
<path d="M118 1179 c-21 -12 -23 -40 -6 -57 7 -7 28 -12 48 -12 l37 0 6 -212
c6 -234 2 -278 -30 -293 -40 -20 -54 -38 -51 -64 7 -58 125 -23 158 47 9 20
12 91 11 280 -2 174 1 252 8 252 19 0 12 49 -8 60 -25 13 -151 13 -173 -1z"/>
<path d="M423 1181 c-34 -3 -67 -11 -73 -17 -7 -7 -13 -117 -17 -315 -6 -276
-5 -305 10 -318 23 -18 186 -28 215 -12 12 6 22 20 22 30 0 32 -29 46 -99 46
l-66 0 -1 95 c0 52 3 100 8 106 5 7 27 12 49 12 45 1 69 15 69 43 0 24 -30 39
-79 39 l-41 0 -2 80 c-1 44 -2 90 -2 103 -1 20 5 23 71 28 81 8 93 13 93 38 0
41 -49 54 -157 42z"/>
<path d="M634 1149 c-18 -20 -19 -38 -17 -317 3 -326 5 -338 58 -314 24 11 25
15 25 99 0 82 10 126 25 111 10 -10 35 -111 35 -143 0 -68 69 -104 91 -48 8
22 6 41 -9 88 -11 33 -30 106 -43 162 l-23 102 42 114 c23 63 42 119 42 124 0
6 -8 18 -19 27 -18 16 -20 16 -44 -6 -13 -13 -37 -58 -53 -100 -16 -43 -32
-78 -36 -78 -5 0 -8 38 -8 83 0 69 -3 87 -18 100 -23 21 -25 21 -48 -4z"/>
<path d="M1013 1148 c-16 -18 -28 -72 -58 -243 -14 -82 -37 -195 -49 -250 -25
-110 -21 -145 19 -145 29 0 45 20 52 67 9 59 20 73 57 73 40 0 51 -12 59 -63
7 -48 23 -67 53 -67 16 0 25 7 29 22 3 13 -10 109 -29 213 -19 105 -39 224
-44 266 -6 42 -16 90 -23 105 -15 31 -49 43 -66 22z m35 -374 c-2 -27 -8 -39
-18 -39 -11 0 -14 9 -12 35 3 50 10 66 23 53 6 -6 9 -28 7 -49z"/>
<path d="M40 225 l0 -185 185 0 185 0 0 185 0 185 -185 0 -185 0 0 -185z m200
110 c0 -13 -4 -27 -10 -30 -11 -7 -25 39 -15 55 10 16 25 2 25 -25z m-60 -4
c17 -33 12 -46 -10 -26 -21 19 -27 45 -10 45 5 0 14 -9 20 -19z m120 6 c0 -19
-27 -53 -36 -45 -9 10 12 58 26 58 5 0 10 -6 10 -13z m-154 -51 c10 -8 16 -18
12 -22 -10 -9 -58 12 -58 26 0 14 23 12 46 -4z m204 4 c0 -12 -38 -32 -52 -28
-14 5 19 38 38 38 8 0 14 -4 14 -10z m-82 -22 c16 -16 16 -70 0 -86 -17 -17
-64 -15 -82 4 -20 20 -20 58 0 78 18 19 65 21 82 4z m93 -43 c0 -5 -7 -12 -16
-13 -23 -5 -47 6 -40 19 8 13 56 8 56 -6z m-216 -5 c-3 -5 -19 -10 -36 -10
-16 0 -29 5 -29 10 0 6 16 10 36 10 21 0 33 -4 29 -10z m15 -40 c0 -14 -48
-35 -58 -26 -8 9 26 36 45 36 7 0 13 -5 13 -10z m171 0 c10 -6 19 -15 19 -20
0 -17 -26 -11 -45 10 -20 22 -7 27 26 10z m-141 -33 c0 -19 -27 -53 -36 -45
-9 10 12 58 26 58 5 0 10 -6 10 -13z m102 -12 c6 -14 8 -28 4 -33 -9 -8 -36
26 -36 45 0 22 20 14 32 -12z m-52 -20 c0 -27 -15 -41 -25 -25 -10 16 4 62 15
55 6 -3 10 -17 10 -30z"/>
<path d="M870 225 l0 -185 185 0 185 0 0 185 0 185 -185 0 -185 0 0 -185z"/>
<path d="M647 334 c-4 -4 -7 -16 -7 -26 0 -14 6 -19 23 -16 14 2 22 10 22 23
0 20 -25 32 -38 19z"/>
<path d="M578 269 c-18 -10 -88 -122 -88 -140 0 -5 62 -9 150 -9 83 0 150 3
150 7 0 11 -70 132 -80 138 -5 3 -16 -8 -25 -25 -8 -16 -17 -30 -19 -30 -2 0
-13 16 -25 35 -21 36 -34 41 -63 24z"/>
</g>
</svg>
