<?xml version="1.0" encoding="UTF-8"?>
<!DOCTYPE svg PUBLIC "-//W3C//DTD SVG 1.1//EN" "http://www.w3.org/Graphics/SVG/1.1/DTD/svg11.dtd">
<!-- Creator: CorelDRAW X7 -->
<svg xmlns="http://www.w3.org/2000/svg" xml:space="preserve" version="1.1" style="shape-rendering:geometricPrecision; text-rendering:geometricPrecision; image-rendering:optimizeQuality; fill-rule:evenodd; clip-rule:evenodd"
viewBox="0 0 121 165"
 xmlns:xlink="http://www.w3.org/1999/xlink">
 <defs>
  <style type="text/css">
   <![CDATA[
    .fil1 {fill:#BC0172}
    .fil0 {fill:#BC0172;fill-rule:nonzero}
   ]]>
  </style>
 </defs>
 <g id="Layer_x0020_1">
  <metadata id="CorelCorpID_0Corel-Layer"/>
  <path class="fil0" d="M4 82l113 0c2,0 4,2 4,4l0 75c0,2 -2,4 -4,4l-113 0c-2,0 -4,-2 -4,-4l0 -75c0,-2 2,-4 4,-4zm109 7l-105 0 0 68 105 0 0 -68z"/>
  <path class="fil0" d="M21 106l29 0c3,0 4,1 4,4l0 51c0,2 -1,4 -4,4l-29 0c-3,0 -4,-2 -4,-4l0 -51c0,-3 1,-4 4,-4zm26 7l-23 0 0 44 23 0 0 -44z"/>
  <path class="fil0" d="M24 57l72 0c2,0 3,1 3,2l21 24c1,2 1,4 -1,6 0,0 -1,0 -2,0l-113 0c-2,0 -4,-1 -4,-3 0,-1 0,-2 1,-3l20 -24c1,-1 2,-2 3,-2zm71 8l-69 0 -14 17 97 0 -14 -17z"/>
  <path class="fil1" d="M60 35c-5,0 -9,-4 -9,-9 0,-5 4,-10 9,-10 5,0 10,5 10,10 0,5 -5,9 -10,9zm0 -35c-14,0 -26,12 -26,26 0,4 2,9 4,13l20 35c1,1 3,1 4,0l21 -35c2,-4 3,-9 3,-13 0,-14 -11,-26 -26,-26z"/>
 </g>
</svg>
