<?xml version="1.0" encoding="UTF-8"?>
<!DOCTYPE svg PUBLIC "-//W3C//DTD SVG 1.1//EN" "http://www.w3.org/Graphics/SVG/1.1/DTD/svg11.dtd">
<!-- Creator: CorelDRAW X7 -->
<svg xmlns="http://www.w3.org/2000/svg" xml:space="preserve" version="1.1" style="shape-rendering:geometricPrecision; text-rendering:geometricPrecision; image-rendering:optimizeQuality; fill-rule:evenodd; clip-rule:evenodd"
viewBox="0 0 429 154"
 xmlns:xlink="http://www.w3.org/1999/xlink">
 <defs>
  <style type="text/css">
   <![CDATA[
    .fil0 {fill:#F09800}
   ]]>
  </style>
 </defs>
 <g id="Layer_x0020_1">
  <metadata id="CorelCorpID_0Corel-Layer"/>
  <path class="fil0" d="M83 154c13,0 25,-8 30,-19 1,-4 2,-8 2,-13 0,-17 -14,-32 -32,-32 -18,0 -32,15 -32,32 0,5 1,9 3,13 5,11 16,19 29,19z"/>
  <path class="fil0" d="M12 135l32 0c-1,-4 -2,-8 -2,-13 0,-22 19,-41 41,-41 23,0 41,19 41,41 0,5 -1,9 -2,13l196 0c-1,-4 -2,-8 -2,-13 0,-22 19,-41 42,-41 22,0 41,19 41,41 0,4 -1,9 -2,12 13,0 22,-3 27,-8 5,-5 5,-10 5,-14 0,-1 0,-1 0,-2 0,-5 -3,-8 -5,-10 -1,0 -2,-1 -3,-1 1,-8 0,-21 -11,-29 -8,-6 -27,-9 -49,-12 -19,-3 -38,-6 -49,-10 -25,-24 -64,-44 -65,-45 -1,-1 -1,-1 -2,-1 0,0 -26,-2 -61,-2 -3,0 -6,0 -10,0 0,0 -1,0 -2,0 -34,0 -81,11 -105,32l0 0c-18,15 -61,20 -61,20 -2,0 -4,1 -4,4 -1,1 0,3 2,4 0,0 1,1 2,5 1,3 1,10 -1,21 -5,15 -6,27 -3,36 2,8 7,12 7,12 1,0 2,1 3,1zm135 -125l9 45 -85 0c0,0 13,-43 76,-45zm60 -3c18,0 35,2 39,3 8,2 52,45 52,45l-131 0 -11 -45c0,0 25,-3 49,-3 0,0 1,0 2,0z"/>
  <path class="fil0" d="M358 154c13,0 24,-8 29,-19 2,-4 3,-8 3,-13 0,-17 -15,-32 -32,-32 -18,0 -32,15 -32,32 0,5 0,9 2,13 5,11 16,19 30,19z"/>
 </g>
</svg>
