<?xml version="1.0" encoding="UTF-8"?>
<!DOCTYPE svg PUBLIC "-//W3C//DTD SVG 1.1//EN" "http://www.w3.org/Graphics/SVG/1.1/DTD/svg11.dtd">
<!-- Creator: CorelDRAW X7 -->
<svg xmlns="http://www.w3.org/2000/svg" xml:space="preserve" version="1.1" style="shape-rendering:geometricPrecision; text-rendering:geometricPrecision; image-rendering:optimizeQuality; fill-rule:evenodd; clip-rule:evenodd"
viewBox="0 0 350 341"
 xmlns:xlink="http://www.w3.org/1999/xlink">
 <defs>
  <style type="text/css">
   <![CDATA[
    .fil0 {fill:#019D61}
   ]]>
  </style>
 </defs>
 <g id="Layer_x0020_1">
  <metadata id="CorelCorpID_0Corel-Layer"/>
  <path class="fil0" d="M294 30c29,-6 37,36 10,42 -28,7 -38,-36 -10,-42zm-175 131c-8,0 -9,0 -9,6 0,4 5,3 9,3l0 9c-7,0 -9,-1 -9,6 0,4 7,3 11,3 4,20 27,38 47,38 12,0 18,0 29,-5 3,-1 13,-8 13,-11 0,-2 -11,-15 -15,-15 -1,0 -3,1 -4,2 -9,7 -23,7 -33,1 -3,-2 -8,-6 -9,-10 5,0 9,0 14,0 7,0 12,1 12,-4 0,-3 -1,-5 -3,-5l-27 0c0,-4 -1,-5 -1,-9l32 0c5,0 4,-2 4,-6 0,-4 -8,-3 -15,-3 -6,0 -12,0 -19,0 4,-16 28,-26 45,-14 3,2 4,7 13,-4 2,-3 5,-5 6,-8 0,-3 -2,-4 -5,-6 -28,-21 -70,-9 -83,24 -1,2 -2,6 -3,8zm103 -160c-14,1 -17,6 -27,16l-16 16c-2,1 -3,3 -5,5 -29,28 -58,57 -88,85 -14,14 -28,29 -43,43 -7,8 -15,14 -22,22 -7,7 -15,12 -19,23 -6,13 3,25 9,31 7,7 14,14 21,21l65 65c6,6 16,16 30,12 11,-3 19,-13 25,-19l172 -172c10,-10 23,-23 25,-39 1,-7 0,-56 0,-65 0,-44 2,-44 -19,-44l-65 0c-13,0 -30,-2 -43,0z"/>
 </g>
</svg>
