<?xml version="1.0" encoding="UTF-8"?>
<!DOCTYPE svg PUBLIC "-//W3C//DTD SVG 1.1//EN" "http://www.w3.org/Graphics/SVG/1.1/DTD/svg11.dtd">
<!-- Creator: CorelDRAW X7 -->
<svg xmlns="http://www.w3.org/2000/svg" xml:space="preserve" version="1.1" style="shape-rendering:geometricPrecision; text-rendering:geometricPrecision; image-rendering:optimizeQuality; fill-rule:evenodd; clip-rule:evenodd"
viewBox="0 0 167 121"
 xmlns:xlink="http://www.w3.org/1999/xlink">
 <defs>
  <style type="text/css">
   <![CDATA[
    .fil0 {fill:#EAE100;fill-rule:nonzero}
   ]]>
  </style>
 </defs>
 <g id="Layer_x0020_1">
  <metadata id="CorelCorpID_0Corel-Layer"/>
  <path class="fil0" d="M137 86l-28 -43 -10 11c-1,1 -2,1 -3,1l0 26 15 -15 26 20zm-50 -41l-20 -33 -25 46 7 8 12 -21 10 14 16 -14zm76 76l-159 0 0 0c-1,0 -1,0 -2,0 -2,-1 -3,-4 -1,-6l62 -113 0 0c0,0 1,-1 1,-1 2,-2 5,-1 6,1l26 42 10 -10c0,-1 0,-1 1,-1 2,-1 4,-1 5,1l54 81c1,0 1,1 1,2 0,2 -2,4 -4,4z"/>
 </g>
</svg>
