<?xml version="1.0" encoding="UTF-8"?>
<!DOCTYPE svg PUBLIC "-//W3C//DTD SVG 1.1//EN" "http://www.w3.org/Graphics/SVG/1.1/DTD/svg11.dtd">
<!-- Creator: CorelDRAW X7 -->
<svg xmlns="http://www.w3.org/2000/svg" xml:space="preserve" version="1.1" style="shape-rendering:geometricPrecision; text-rendering:geometricPrecision; image-rendering:optimizeQuality; fill-rule:evenodd; clip-rule:evenodd"
viewBox="0 0 184 184"
 xmlns:xlink="http://www.w3.org/1999/xlink">
 <defs>
  <style type="text/css">
   <![CDATA[
    .fil1 {fill:#8F4FAD}
    .fil0 {fill:#8F4FAD;fill-rule:nonzero}
   ]]>
  </style>
 </defs>
 <g id="Layer_x0020_1">
  <metadata id="CorelCorpID_0Corel-Layer"/>
  <path class="fil0" d="M5 21l179 0 0 163 -184 0 0 -163 5 0zm168 10l-162 0 0 143 162 0 0 -143z"/>
  <rect class="fil1" x="35" width="16.8779" height="51.5553"/>
  <rect class="fil1" x="132" width="16.8779" height="51.5553"/>
  <rect class="fil1" transform="matrix(3.21249E-014 -0.491739 1.21297 1.30235E-014 19.6618 87.1819)" width="34.3229" height="77.6074"/>
  <rect class="fil1" transform="matrix(3.21249E-014 -0.491739 1.21297 1.30235E-014 19.6618 119.647)" width="34.3229" height="77.6074"/>
  <rect class="fil1" transform="matrix(3.21249E-014 -0.491739 1.21297 1.30235E-014 19.6618 152.111)" width="34.3229" height="77.6074"/>
  <rect class="fil1" transform="matrix(8.04162E-015 -0.491739 0.303634 1.30235E-014 132.421 87.1819)" width="34.3229" height="77.6074"/>
  <rect class="fil1" transform="matrix(8.04162E-015 -0.491739 0.303634 1.30235E-014 132.421 119.647)" width="34.3229" height="77.6074"/>
  <rect class="fil1" transform="matrix(8.04162E-015 -0.491739 0.303634 1.30235E-014 132.421 152.111)" width="34.3229" height="77.6074"/>
 </g>
</svg>
