<?xml version="1.0" encoding="UTF-8"?>
<!DOCTYPE svg PUBLIC "-//W3C//DTD SVG 1.1//EN" "http://www.w3.org/Graphics/SVG/1.1/DTD/svg11.dtd">
<!-- Creator: CorelDRAW X7 -->
<svg xmlns="http://www.w3.org/2000/svg" xml:space="preserve" version="1.1" style="shape-rendering:geometricPrecision; text-rendering:geometricPrecision; image-rendering:optimizeQuality; fill-rule:evenodd; clip-rule:evenodd"
viewBox="0 0 125 131"
 xmlns:xlink="http://www.w3.org/1999/xlink">
 <defs>
  <style type="text/css">
   <![CDATA[
    .fil0 {fill:#F09800}
   ]]>
  </style>
 </defs>
 <g id="Layer_x0020_1">
  <metadata id="CorelCorpID_0Corel-Layer"/>
  <path class="fil0" d="M107 85c-1,3 -4,5 -7,6 0,2 1,3 0,4 0,3 -2,4 -1,8 1,1 2,2 4,2 -11,13 -26,20 -43,20 -30,0 -55,-24 -55,-54 0,-8 2,-16 5,-23 4,8 9,13 12,14 4,3 1,9 3,14 3,5 10,2 10,13 -1,10 4,6 3,14 0,6 1,14 7,12 6,-2 2,-8 3,-11 2,-4 9,-4 10,-8 1,-4 -2,-4 0,-8 2,-4 8,-2 9,-5 2,-3 3,-6 3,-8 -1,-6 -5,-8 -9,-9 -5,-1 -7,5 -13,1 -3,-3 1,-7 -4,-10 -5,-2 -10,1 -15,-3 -2,-2 -7,-4 -5,-7 1,-4 7,1 11,-1 4,-2 1,-5 4,-7 3,-2 7,1 10,0 4,-1 4,-4 4,-7 0,-4 -5,-8 -5,-15 4,-1 8,-1 12,-1 1,0 2,0 3,0 0,-2 1,-4 2,-5 -2,0 -3,-1 -5,-1 -33,0 -60,27 -60,61 0,33 27,60 60,60 33,0 60,-27 60,-60 0,-3 0,-6 0,-8l-13 22zm-10 -46c-6,0 -11,-4 -11,-10 0,-6 5,-11 11,-11 6,0 10,5 10,11 0,6 -4,10 -10,10zm0 -39c-16,0 -29,13 -29,29 0,5 1,10 4,14l22 39c1,2 4,2 5,0l23 -39c2,-4 3,-9 3,-14 0,-16 -12,-29 -28,-29z"/>
 </g>
</svg>
