<?xml version="1.0" encoding="UTF-8"?>
<!DOCTYPE svg PUBLIC "-//W3C//DTD SVG 1.1//EN" "http://www.w3.org/Graphics/SVG/1.1/DTD/svg11.dtd">
<!-- Creator: CorelDRAW X7 -->
<svg xmlns="http://www.w3.org/2000/svg" xml:space="preserve" version="1.1" style="shape-rendering:geometricPrecision; text-rendering:geometricPrecision; image-rendering:optimizeQuality; fill-rule:evenodd; clip-rule:evenodd"
viewBox="0 0 146 126"
 xmlns:xlink="http://www.w3.org/1999/xlink">
 <defs>
  <style type="text/css">
   <![CDATA[
    .fil0 {fill:#008250}
   ]]>
  </style>
 </defs>
 <g id="Layer_x0020_1">
  <metadata id="CorelCorpID_0Corel-Layer"/>
  <path class="fil0" d="M141 24l-8 0 0 30 8 0c3,0 5,-2 5,-5l0 -20c0,-2 -2,-5 -5,-5zm-21 43c0,4 -4,7 -7,7l-79 0c-4,0 -7,-3 -7,-7l0 -41c0,-4 3,-7 7,-7l79 0c3,0 7,3 7,7l0 41zm-9 27c-4,0 -7,-3 -7,-7 0,-4 3,-7 7,-7 3,0 7,3 7,7 0,4 -4,7 -7,7zm-75 0c-4,0 -7,-3 -7,-7 0,-4 3,-7 7,-7 3,0 7,3 7,7 0,4 -4,7 -7,7zm18 -90l38 0 0 11 -38 0 0 -11zm65 -4l-92 0c-6,0 -10,5 -10,11l0 82c0,6 4,11 10,11l92 0c6,0 11,-5 11,-11l0 -82c0,-6 -5,-11 -11,-11zm-91 118c0,4 3,8 8,8 4,0 7,-4 7,-8l0 -11 -15 0 0 11zm75 0c0,4 3,8 8,8 4,0 7,-4 7,-8l0 -11 -15 0 0 11zm-103 -89l0 20c0,3 2,5 5,5l8 0 0 -30 -8 0c-3,0 -5,3 -5,5z"/>
 </g>
</svg>
