<?xml version="1.0" encoding="UTF-8"?>
<!DOCTYPE svg PUBLIC "-//W3C//DTD SVG 1.1//EN" "http://www.w3.org/Graphics/SVG/1.1/DTD/svg11.dtd">
<!-- Creator: CorelDRAW X7 -->
<svg xmlns="http://www.w3.org/2000/svg" xml:space="preserve" version="1.1" style="shape-rendering:geometricPrecision; text-rendering:geometricPrecision; image-rendering:optimizeQuality; fill-rule:evenodd; clip-rule:evenodd"
viewBox="0 0 150 154"
 xmlns:xlink="http://www.w3.org/1999/xlink">
 <defs>
  <style type="text/css">
   <![CDATA[
    .fil0 {fill:#F09800}
   ]]>
  </style>
 </defs>
 <g id="Layer_x0020_1">
  <metadata id="CorelCorpID_0Corel-Layer"/>
  <path class="fil0" d="M15 145c0,0 20,9 41,9 0,0 1,0 1,0 0,0 1,0 2,0 21,0 40,-9 40,-9 10,2 15,-7 15,-7l-2 -19c-2,-18 -18,-21 -21,-22 -4,-1 -16,-5 -17,-8 -1,-1 -1,-4 -1,-6 16,-20 20,-65 -14,-65 0,0 0,0 -2,0 -1,0 -2,0 -2,0 -35,5 -30,45 -14,65 0,2 0,5 0,6 -2,3 -14,7 -17,8 -3,1 -20,4 -21,22l-3 19c0,0 6,9 15,7z"/>
  <path class="fil0" d="M126 114c7,-2 11,-4 11,-4 8,1 13,-6 13,-6l-2 -17c-1,-15 -15,-18 -18,-19 -3,-1 -13,-3 -15,-7 0,-1 0,-3 0,-5 14,-17 17,-56 -12,-56 0,0 -1,0 -2,0 -2,0 -2,0 -2,0 -8,1 -13,4 -17,8 23,8 19,46 5,63 0,3 0,5 0,6 2,4 14,7 17,8 3,1 20,5 21,22l1 7z"/>
 </g>
</svg>
