<?xml version="1.0" encoding="UTF-8"?>
<!DOCTYPE svg PUBLIC "-//W3C//DTD SVG 1.1//EN" "http://www.w3.org/Graphics/SVG/1.1/DTD/svg11.dtd">
<!-- Creator: CorelDRAW X7 -->
<svg xmlns="http://www.w3.org/2000/svg" xml:space="preserve" version="1.1" style="shape-rendering:geometricPrecision; text-rendering:geometricPrecision; image-rendering:optimizeQuality; fill-rule:evenodd; clip-rule:evenodd"
viewBox="0 0 906 502"
 xmlns:xlink="http://www.w3.org/1999/xlink">
 <defs>
  <style type="text/css">
   <![CDATA[
    .fil0 {fill:#F09800}
   ]]>
  </style>
 </defs>
 <g id="Layer_x0020_1">
  <metadata id="CorelCorpID_0Corel-Layer"/>
  <g id="_52345177424">
   <path class="fil0" d="M897 101c14,-13 11,-17 -4,-28 -44,-32 -34,-14 -57,-22 -6,-2 -12,-5 -18,-7 -22,-7 -67,-12 -82,-20 -10,-6 -17,-20 -29,-23 -11,-3 -34,3 -43,7 -9,4 -7,6 -13,13 -5,5 -10,4 -19,7l2 20c-9,-2 -5,-3 -11,-6 -3,4 -4,4 -6,8 -9,0 -10,-3 -17,4 -9,10 -19,11 -29,17 -5,2 -11,4 -16,6 -11,4 -27,2 -34,-4 -26,-22 -20,-34 -51,0 -20,23 -44,40 -28,51 9,6 8,2 11,13 2,7 4,9 12,9 10,-12 3,-17 15,-15 4,8 -3,20 -7,25 -21,2 -16,-12 -32,4 -20,19 -19,11 -28,17 2,4 8,11 7,15 0,10 -14,-4 -19,11 -3,10 0,14 4,20 22,1 28,-22 32,-24 12,-2 18,5 26,9l-2 10c8,-1 6,-4 14,-6 13,14 8,6 16,3 10,5 12,4 18,6 10,4 5,14 -1,16 -8,4 -11,-1 -18,-1 -6,-1 -10,3 -18,0 -14,-3 -4,-22 -44,-14 -16,3 -20,3 -28,13 -13,17 -24,31 -14,59 11,27 25,19 44,19 25,-1 14,6 18,17 1,4 3,7 4,12 5,13 13,55 15,70 1,8 0,8 5,12 5,2 16,-2 21,-4 15,-8 12,-25 21,-36 4,-5 12,-8 13,-13 3,-6 1,-20 2,-27 1,-12 12,-18 22,-33 20,-32 -12,-13 -23,-28 -2,-3 -11,-19 -12,-24 9,0 11,13 17,20 8,10 10,8 23,3 8,-3 19,-7 15,-18 -6,-14 -16,-1 -20,-17 10,1 14,7 25,9 12,3 13,5 22,11 14,11 14,32 24,41 5,-2 5,-4 8,-10 9,-18 16,-22 20,-31 7,2 13,9 17,14 7,8 5,11 6,24 5,-4 3,-5 8,-10l5 7c8,-1 15,-6 18,-11 3,-7 -12,-17 2,-22 3,-1 9,-2 16,-5 23,-12 6,-26 7,-38 0,-3 6,-13 13,-13l0 16c26,-2 8,-14 20,-27 4,-5 9,-9 13,-14 5,-5 8,-11 11,-18 4,-12 -2,-13 -6,-18 2,-9 16,-24 29,-17 10,4 6,27 8,40 4,-2 4,-6 6,-11 6,-11 12,-15 16,-20 3,-5 1,-9 5,-13 2,-4 18,-10 23,-12 20,-10 9,-9 15,-22 8,1 7,3 15,4z"/>
   <path class="fil0" d="M225 151c0,6 0,14 -6,12 -5,-1 -4,-7 -4,-13l-5 -3c-9,-1 -17,-8 -24,-12 -1,-14 0,-22 9,-26 8,-5 15,3 24,-7 -1,-4 -4,-4 -4,-8 0,-4 3,-5 4,-10 2,-10 -4,-16 -7,-21 -16,-1 -16,9 -27,6 -7,-2 -2,-3 -12,0 -5,2 -8,2 -14,2 -36,-1 -34,-10 -54,-8 -2,0 -30,2 -30,2 -21,-4 -39,-18 -52,-11 -3,2 -15,12 -17,15 -2,9 4,4 -3,17 -5,8 -3,8 -1,17 2,17 2,24 18,28 25,6 24,-6 38,-6 13,0 12,15 21,23 11,11 15,8 23,23 7,11 4,25 8,39 4,17 7,17 16,29 6,9 10,20 18,27l2 -4c1,-3 1,-3 1,-5 8,6 9,19 26,23 19,4 18,8 33,16 14,8 21,10 14,30 -4,15 3,24 9,35 8,13 19,11 16,32 -3,17 -11,75 -10,89 2,10 13,21 26,20 1,-7 -2,-4 -3,-13 -1,-6 2,-10 3,-14 3,-12 -5,-15 5,-26 6,-5 11,-9 17,-14l44 -50c7,-7 17,-34 15,-48 -7,-9 -22,-7 -32,-12 -18,-8 -15,-25 -55,-34 -24,-6 -19,4 -35,3 -4,-4 -3,-5 -7,-9l-7 -6c-4,-3 -1,-10 -4,-17 -7,1 -8,7 -19,10 -4,-6 -13,-26 5,-29 26,-5 19,10 31,13 5,-17 -1,-12 11,-26 6,-9 7,-17 15,-22 14,-10 29,-21 49,-24 -1,-18 -20,-43 -23,-50 -2,-6 -4,-11 -8,-15 -8,4 -1,6 -11,9 -5,-10 -8,-19 -25,-17 -2,5 -4,15 -3,22 3,12 6,5 1,18z"/>
   <path class="fil0" d="M279 14c3,12 3,21 4,35 1,13 6,5 7,15 0,5 -2,11 -3,16 0,15 11,43 28,52 9,-7 8,-26 15,-34 7,-8 19,-13 28,-20 15,-13 19,-16 17,-30 -4,-22 6,-20 8,-34l-104 0z"/>
   <path class="fil0" d="M714 384c-1,9 1,13 1,20 0,8 -2,9 -1,18 17,10 35,-12 49,-5 9,4 20,28 39,18 7,-4 8,-12 11,-21 9,-28 -4,-21 -15,-41 -4,-7 -5,-14 -10,-19 -6,5 -5,9 -15,11 0,0 0,-1 0,-1l-1 -3c-1,0 -1,-1 -1,-1 -1,-2 0,-2 -1,-4 -11,-1 -10,1 -15,6 -6,4 -1,1 -8,2 -5,1 -5,1 -8,4 -14,14 7,4 -25,16z"/>
   <path class="fil0" d="M666 309c27,52 20,26 38,35 11,4 10,6 17,-1 10,1 12,1 19,-3 1,-6 0,-13 -1,-17 -4,-2 -7,-1 -10,1 -6,4 -2,4 -10,7 1,-12 3,-17 -9,-14 -11,4 -8,5 -14,12 -6,-1 -21,-16 -30,-20z"/>
   <path class="fil0" d="M790 332c-2,-1 -28,-4 -29,-4 2,4 -1,3 4,6 2,1 5,2 6,3 5,4 0,5 7,10 5,3 22,6 29,5 0,-2 -1,-6 -2,-8 -2,-6 1,-2 -4,-5 0,-1 -11,-7 -11,-7z"/>
   <path class="fil0" d="M756 240c8,-2 28,-15 30,-21 3,-9 -1,-10 5,-19 4,-6 5,-9 0,-17 -8,4 -10,22 -15,31 -6,14 -17,8 -20,26z"/>
   <path class="fil0" d="M225 151c-1,2 -1,1 -2,4 0,2 0,0 0,2 0,1 0,1 0,2l-2 3c-7,-2 -3,0 -5,-14l-6 -1 5 3c0,6 -1,12 4,13 6,2 6,-6 6,-12z"/>
  </g>
 </g>
</svg>
