<?xml version="1.0" encoding="UTF-8"?>
<!DOCTYPE svg PUBLIC "-//W3C//DTD SVG 1.1//EN" "http://www.w3.org/Graphics/SVG/1.1/DTD/svg11.dtd">
<!-- Creator: CorelDRAW X7 -->
<svg xmlns="http://www.w3.org/2000/svg" xml:space="preserve" version="1.1" style="shape-rendering:geometricPrecision; text-rendering:geometricPrecision; image-rendering:optimizeQuality; fill-rule:evenodd; clip-rule:evenodd"
viewBox="0 0 206 206"
 xmlns:xlink="http://www.w3.org/1999/xlink">
 <defs>
  <style type="text/css">
   <![CDATA[
    .fil0 {fill:#019D61}
   ]]>
  </style>
 </defs>
 <g id="Layer_x0020_1">
  <metadata id="CorelCorpID_0Corel-Layer"/>
  <path class="fil0" d="M103 0c57,0 103,46 103,103 0,57 -46,103 -103,103 -57,0 -103,-46 -103,-103 0,-57 46,-103 103,-103zm0 10c51,0 93,42 93,93 0,51 -42,93 -93,93 -51,0 -93,-42 -93,-93 0,-51 42,-93 93,-93z"/>
  <path class="fil0" d="M52 92c-9,0 -9,-1 -9,6 0,3 4,2 8,2l0 10c-7,0 -8,-1 -8,6 0,4 6,3 10,3 5,20 28,39 49,39 12,0 18,1 29,-5 3,-1 14,-9 14,-12 0,-1 -12,-15 -15,-15 -2,0 -3,2 -5,3 -9,6 -23,6 -33,0 -4,-2 -9,-6 -10,-10 5,0 10,0 14,0 8,0 12,2 12,-4 0,-3 0,-5 -2,-5l-28 0c0,-4 -1,-5 -1,-9l33 0c5,0 4,-3 4,-6 0,-4 -9,-3 -15,-3 -7,0 -13,0 -20,0 4,-17 28,-28 46,-15 4,2 5,7 13,-4 2,-3 5,-5 7,-8 -1,-3 -3,-4 -5,-6 -29,-22 -72,-9 -85,24 -1,3 -2,7 -3,9z"/>
 </g>
</svg>
