<?xml version="1.0" encoding="UTF-8"?>
<!DOCTYPE svg PUBLIC "-//W3C//DTD SVG 1.1//EN" "http://www.w3.org/Graphics/SVG/1.1/DTD/svg11.dtd">
<!-- Creator: CorelDRAW X7 -->
<svg xmlns="http://www.w3.org/2000/svg" xml:space="preserve" version="1.1" style="shape-rendering:geometricPrecision; text-rendering:geometricPrecision; image-rendering:optimizeQuality; fill-rule:evenodd; clip-rule:evenodd"
viewBox="0 0 289 289"
 xmlns:xlink="http://www.w3.org/1999/xlink">
 <defs>
  <style type="text/css">
   <![CDATA[
    .fil0 {fill:#BC0172}
   ]]>
  </style>
 </defs>
 <g id="Layer_x0020_1">
  <metadata id="CorelCorpID_0Corel-Layer"/>
  <path class="fil0" d="M208 250l0 -44 9 -4 52 52 6 20 -67 -24zm-64 -157c-12,0 -23,-10 -23,-23 0,-13 11,-23 23,-23 13,0 24,10 24,23 0,13 -11,23 -24,23zm0 -93c-38,0 -69,31 -69,69 0,12 3,24 9,35l55 95c3,4 8,4 10,0l55 -95c7,-11 10,-23 10,-35 0,-38 -31,-69 -70,-69zm64 165l32 14 -32 14 0 -28zm55 67l-35 -35 22 -10 13 45zm-67 18l-92 26 0 -24 92 -41 0 39zm-104 -15l-51 -52 8 -19 43 19 0 52zm0 40l-78 -24 22 -56 56 56 0 24zm197 7l-29 -104c-1,-2 -2,-3 -3,-4l-52 -23c-2,-1 -3,-1 -4,-1l-11 3 -8 13 14 -3 0 35 -92 42 0 -56 12 -3 -6 -10 -11 2 -50 -22c-2,-1 -3,-1 -5,0 -1,0 -3,1 -3,3l-41 98c0,2 0,3 1,5 0,1 2,2 3,3l93 29c1,0 2,0 3,0l102 -29 79 29c1,0 1,0 2,0 2,0 3,-1 4,-2 2,-1 2,-3 2,-5z"/>
 </g>
</svg>
