<?xml version="1.0" encoding="UTF-8"?>
<!DOCTYPE svg PUBLIC "-//W3C//DTD SVG 1.1//EN" "http://www.w3.org/Graphics/SVG/1.1/DTD/svg11.dtd">
<!-- Creator: CorelDRAW X7 -->
<svg xmlns="http://www.w3.org/2000/svg" xml:space="preserve" version="1.1" style="shape-rendering:geometricPrecision; text-rendering:geometricPrecision; image-rendering:optimizeQuality; fill-rule:evenodd; clip-rule:evenodd"
viewBox="0 0 5403 3526"
 xmlns:xlink="http://www.w3.org/1999/xlink">
 <defs>
  <style type="text/css">
   <![CDATA[
    .fil0 {fill:#8F4FAD}
   ]]>
  </style>
 </defs>
 <g id="Layer_x0020_1">
  <metadata id="CorelCorpID_0Corel-Layer"/>
  <path class="fil0" d="M207 0l4989 0c114,0 207,93 207,207l0 3112c0,114 -93,207 -207,207l-4989 0c-114,0 -207,-93 -207,-207l0 -3112c0,-114 93,-207 207,-207zm3057 2442l1458 0 0 450 -1458 0 0 -450zm0 -948l1458 0 0 449 -1458 0 0 -449zm0 -889l1458 0 0 449 -1458 0 0 -449zm-1845 2237l1169 -1915 -440 -281 -903 1417 -609 -423 -303 391 1086 811z"/>
 </g>
</svg>
