<?xml version="1.0" encoding="UTF-8"?>
<!DOCTYPE svg PUBLIC "-//W3C//DTD SVG 1.1//EN" "http://www.w3.org/Graphics/SVG/1.1/DTD/svg11.dtd">
<!-- Creator: CorelDRAW X7 -->
<svg xmlns="http://www.w3.org/2000/svg" xml:space="preserve" version="1.1" style="shape-rendering:geometricPrecision; text-rendering:geometricPrecision; image-rendering:optimizeQuality; fill-rule:evenodd; clip-rule:evenodd"
viewBox="0 0 1027 1281"
 xmlns:xlink="http://www.w3.org/1999/xlink">
 <defs>
  <style type="text/css">
   <![CDATA[
    .fil0 {fill:#019D61;fill-rule:nonzero}
   ]]>
  </style>
 </defs>
 <g id="Layer_x0020_1">
  <metadata id="CorelCorpID_0Corel-Layer"/>
  <path class="fil0" d="M37 0l953 0c20,0 37,16 37,37l0 1207c0,20 -17,37 -37,37l-335 0 0 0 -263 0 -1 0 -354 0c-21,0 -37,-17 -37,-37l0 -1207c0,-21 16,-37 37,-37zm705 911l108 0 0 92 -108 0 0 -92zm-551 0l108 0 0 92 -108 0 0 -92zm551 -182l108 0 0 91 -108 0 0 -91zm-183 0l107 0 0 91 -107 0 0 -91zm-184 0l107 0 0 91 -107 0 0 -91zm-184 0l108 0 0 91 -108 0 0 -91zm551 -178l108 0 0 92 -108 0 0 -92zm-183 0l107 0 0 92 -107 0 0 -92zm-184 0l107 0 0 92 -107 0 0 -92zm-184 0l108 0 0 92 -108 0 0 -92zm551 -186l108 0 0 92 -108 0 0 -92zm-183 0l107 0 0 92 -107 0 0 -92zm-184 0l107 0 0 92 -107 0 0 -92zm-184 0l108 0 0 92 -108 0 0 -92zm551 -186l108 0 0 92 -108 0 0 -92zm-183 0l107 0 0 92 -107 0 0 -92zm-184 0l107 0 0 92 -107 0 0 -92zm-184 0l108 0 0 92 -108 0 0 -92zm201 802l263 0c20,0 36,17 36,37l0 189 263 0 0 -1134 -881 0 0 1134 282 0 0 -189c0,-20 17,-37 37,-37zm226 73l-190 0 0 153 190 0 0 -153z"/>
 </g>
</svg>
