<?xml version="1.0" encoding="UTF-8"?>
<!DOCTYPE svg PUBLIC "-//W3C//DTD SVG 1.1//EN" "http://www.w3.org/Graphics/SVG/1.1/DTD/svg11.dtd">
<!-- Creator: CorelDRAW X7 -->
<svg xmlns="http://www.w3.org/2000/svg" xml:space="preserve" version="1.1" style="shape-rendering:geometricPrecision; text-rendering:geometricPrecision; image-rendering:optimizeQuality; fill-rule:evenodd; clip-rule:evenodd"
viewBox="0 0 3082 1736"
 xmlns:xlink="http://www.w3.org/1999/xlink">
 <defs>
  <style type="text/css">
   <![CDATA[
    .fil1 {fill:#BC0172}
    .fil0 {fill:#BC0172;fill-rule:nonzero}
   ]]>
  </style>
 </defs>
 <g id="Layer_x0020_1">
  <metadata id="CorelCorpID_0Corel-Layer"/>
  <g id="_485159743024">
   <path class="fil0" d="M130 0l2822 0c36,0 68,15 92,38l0 0c24,24 38,57 38,92l0 1476c0,36 -14,68 -38,92 -24,23 -56,38 -92,38l-2822 0c-36,0 -68,-15 -92,-38 -23,-24 -38,-56 -38,-92l0 -1476c0,-35 15,-68 38,-92l0 0c24,-23 57,-38 92,-38zm2822 97l-2822 0c-9,0 -17,4 -23,10 -6,6 -10,14 -10,23l0 1476c0,9 4,17 10,23 6,6 14,10 23,10l2822 0c9,0 17,-4 23,-10 6,-6 10,-14 10,-23l0 -1476c0,-9 -4,-17 -10,-23 -6,-6 -14,-10 -23,-10z"/>
   <polygon class="fil0" points="844,49 844,1687 746,1687 746,49 "/>
   <polygon class="fil0" points="1590,49 1590,1687 1492,1687 1492,49 "/>
   <polygon class="fil0" points="2336,49 2336,1687 2239,1687 2239,49 "/>
   <rect class="fil1" x="247" y="264" width="335" height="219"/>
   <rect class="fil1" x="247" y="593" width="335" height="219"/>
   <rect class="fil1" x="247" y="922" width="335" height="219"/>
   <rect class="fil1" x="1000" y="264" width="335" height="219"/>
   <rect class="fil1" x="1000" y="593" width="335" height="219"/>
   <rect class="fil1" x="1746" y="264" width="335" height="219"/>
   <rect class="fil1" x="1746" y="593" width="335" height="219"/>
   <rect class="fil1" x="1746" y="922" width="335" height="219"/>
   <rect class="fil1" x="2493" y="264" width="335" height="219"/>
   <rect class="fil1" x="1746" y="1251" width="335" height="219"/>
  </g>
 </g>
</svg>
