<?xml version="1.0" encoding="UTF-8"?>
<!DOCTYPE svg PUBLIC "-//W3C//DTD SVG 1.1//EN" "http://www.w3.org/Graphics/SVG/1.1/DTD/svg11.dtd">
<!-- Creator: CorelDRAW X7 -->
<svg xmlns="http://www.w3.org/2000/svg" xml:space="preserve" version="1.1" style="shape-rendering:geometricPrecision; text-rendering:geometricPrecision; image-rendering:optimizeQuality; fill-rule:evenodd; clip-rule:evenodd"
viewBox="0 0 262 177"
 xmlns:xlink="http://www.w3.org/1999/xlink">
 <defs>
  <style type="text/css">
   <![CDATA[
    .fil0 {fill:#EAE100}
   ]]>
  </style>
 </defs>
 <g id="Layer_x0020_1">
  <metadata id="CorelCorpID_0Corel-Layer"/>
  <g id="_485189091200">
   <path class="fil0" d="M14 177l234 0c5,0 10,-5 12,-9 2,-5 2,-12 2,-19l0 -127c-2,1 -3,2 -5,3l-28 24c-12,9 -25,21 -37,30l-45 38c-1,1 -2,2 -4,3 -1,2 -2,3 -4,4 -3,2 -5,4 -8,7 -2,-1 -2,-2 -4,-4 -2,-1 -3,-2 -4,-3l-90 -75c-3,-2 -5,-4 -8,-7l-25 -20 0 126c0,10 -2,20 6,26 2,1 4,3 8,3z"/>
   <path class="fil0" d="M6 4c2,2 5,5 7,6l114 95c1,1 2,2 4,3 4,-3 24,-21 31,-26 5,-4 10,-9 16,-13 2,-2 5,-4 8,-7 2,-2 5,-4 7,-6l47 -39c3,-3 14,-10 16,-13 -4,-3 -7,-4 -12,-4l-225 0c-6,0 -9,1 -13,4z"/>
  </g>
 </g>
</svg>
