<?xml version="1.0" encoding="UTF-8"?>
<!DOCTYPE svg PUBLIC "-//W3C//DTD SVG 1.1//EN" "http://www.w3.org/Graphics/SVG/1.1/DTD/svg11.dtd">
<!-- Creator: CorelDRAW X7 -->
<svg xmlns="http://www.w3.org/2000/svg" xml:space="preserve" version="1.1" style="shape-rendering:geometricPrecision; text-rendering:geometricPrecision; image-rendering:optimizeQuality; fill-rule:evenodd; clip-rule:evenodd"
viewBox="0 0 137 137"
 xmlns:xlink="http://www.w3.org/1999/xlink">
 <defs>
  <style type="text/css">
   <![CDATA[
    .fil0 {fill:#7AD8E6}
   ]]>
  </style>
 </defs>
 <g id="Layer_x0020_1">
  <metadata id="CorelCorpID_0Corel-Layer"/>
  <g id="_485189076992">
   <path class="fil0" d="M69 86c0,-13 15,-19 24,-11 8,8 5,25 -10,25 -8,0 -14,-7 -14,-14zm-14 -20c-20,0 -20,-28 0,-28 3,0 7,2 9,4 9,9 1,24 -9,24zm-12 31c-1,0 -3,-2 -3,-4 0,-2 5,-5 6,-7 8,-8 42,-43 47,-46 7,4 3,6 -2,11 -2,2 -4,4 -7,7l-20 20c-4,4 -16,19 -21,19zm3 -89c-6,0 -12,-1 -16,5 -2,3 -5,10 -6,11 -3,3 -16,5 -16,17 0,6 2,9 -2,14 -2,3 -5,7 -6,11 -1,7 5,13 7,18 3,4 -4,17 6,23 3,2 10,5 11,6 3,3 5,17 17,17 7,0 9,-2 14,1 7,5 8,6 15,6 5,0 12,-8 15,-8 14,0 17,4 25,-12 3,-6 4,-4 12,-9 3,-2 7,-6 7,-12 0,-8 -2,-8 2,-14 7,-11 8,-14 1,-25 -4,-6 -2,-5 -2,-16 0,-12 -14,-13 -17,-17 -3,-4 -5,-16 -16,-16 -12,0 -8,3 -20,-5 -11,-7 -16,1 -23,4 -3,2 -4,1 -8,1z"/>
   <path class="fil0" d="M77 85c0,11 13,8 13,1 0,-9 -13,-10 -13,-1z"/>
   <path class="fil0" d="M47 52c0,7 13,10 13,-1 0,-8 -13,-8 -13,1z"/>
  </g>
 </g>
</svg>
