<?xml version="1.0" encoding="UTF-8"?>
<!DOCTYPE svg PUBLIC "-//W3C//DTD SVG 1.1//EN" "http://www.w3.org/Graphics/SVG/1.1/DTD/svg11.dtd">
<!-- Creator: CorelDRAW X7 -->
<svg xmlns="http://www.w3.org/2000/svg" xml:space="preserve" version="1.1" style="shape-rendering:geometricPrecision; text-rendering:geometricPrecision; image-rendering:optimizeQuality; fill-rule:evenodd; clip-rule:evenodd"
viewBox="0 0 647 485"
 xmlns:xlink="http://www.w3.org/1999/xlink">
 <defs>
  <style type="text/css">
   <![CDATA[
    .fil1 {fill:#8F4FAD}
    .fil0 {fill:#8F4FAD;fill-rule:nonzero}
   ]]>
  </style>
 </defs>
 <g id="Layer_x0020_1">
  <metadata id="CorelCorpID_0Corel-Layer"/>
  <path class="fil0" d="M20 87c-11,0 -20,-9 -20,-20 0,-10 9,-19 20,-19l607 0c11,0 20,9 20,19 0,11 -9,20 -20,20l-607 0z"/>
  <path class="fil0" d="M20 263c-11,0 -20,-9 -20,-20 0,-11 9,-19 20,-19l607 0c11,0 20,8 20,19 0,11 -9,20 -20,20l-607 0z"/>
  <path class="fil0" d="M20 439c-11,0 -20,-9 -20,-20 0,-11 9,-19 20,-19l607 0c11,0 20,8 20,19 0,11 -9,20 -20,20l-607 0z"/>
  <circle class="fil1" cx="168" cy="66" r="66"/>
  <circle class="fil1" cx="296" cy="243" r="66"/>
  <circle class="fil1" cx="479" cy="419" r="66"/>
 </g>
</svg>
