<?xml version="1.0" encoding="UTF-8"?>
<!DOCTYPE svg PUBLIC "-//W3C//DTD SVG 1.1//EN" "http://www.w3.org/Graphics/SVG/1.1/DTD/svg11.dtd">
<!-- Creator: CorelDRAW X7 -->
<svg xmlns="http://www.w3.org/2000/svg" xml:space="preserve" version="1.1" style="shape-rendering:geometricPrecision; text-rendering:geometricPrecision; image-rendering:optimizeQuality; fill-rule:evenodd; clip-rule:evenodd"
viewBox="0 0 286 265"
 xmlns:xlink="http://www.w3.org/1999/xlink">
 <defs>
  <style type="text/css">
   <![CDATA[
    .fil0 {fill:#008250;fill-rule:nonzero}
   ]]>
  </style>
 </defs>
 <g id="Layer_x0020_1">
  <metadata id="CorelCorpID_0Corel-Layer"/>
  <path class="fil0" d="M27 51l198 0 -28 -34 -142 0 -28 34zm206 131c-11,0 -20,-8 -20,-19 0,-11 9,-20 20,-20 10,0 19,9 19,20 0,11 -9,19 -19,19zm0 -73c-30,0 -54,24 -54,54 0,9 3,18 7,26l42 73c2,4 7,4 9,0l42 -73c5,-8 7,-17 7,-26 0,-30 -24,-54 -53,-54zm16 -55c2,2 2,4 2,6l0 36c-5,-2 -11,-3 -17,-3l0 -24 -217 0 0 138 18 0 0 -98c0,-4 4,-8 8,-8l62 0c5,0 9,4 9,8l0 98 65 0 10 17 -81 0c-1,0 -2,1 -3,1l-62 0c-1,0 -1,-1 -2,-1l-32 0c-5,0 -9,-4 -9,-8l0 -156 0 0 0 0 0 0 0 0 0 0 0 0 0 0 0 -1 0 0 0 0 0 0 0 0 0 0 0 0 0 0 0 0 0 0 0 0 0 0 0 0 0 0 0 -1 0 0 0 0 0 0 0 0 0 0 0 0 0 0 0 0 0 0 0 0 0 0 0 0 0 0 0 -1 0 0 0 0 0 0 0 0 0 0 1 0 0 0 0 0 0 0 0 0 0 0 0 0 0 0 0 -1 0 0 0 0 0 0 0 0 0 0 0 0 0 0 0 0 0 0 0 0 0 0 0 0 0 0 0 0 0 0 0 0 0 -1 0 0 0 0 0 0 0 0 0 0 1 0 0 0 0 0 0 0 0 0 0 0 0 0 0 0 0 0 0 0 0 0 0 0 0 -1 0 0 0 0 0 0 0 0 0 0 0 0 0 0 0 0 0 0 42 -51c2,-2 4,-3 7,-3l150 0c2,0 5,1 6,3l42 51zm-197 153l45 0 0 -89 -45 0 0 89z"/>
 </g>
</svg>
