<?xml version="1.0" encoding="UTF-8"?>
<!DOCTYPE svg PUBLIC "-//W3C//DTD SVG 1.1//EN" "http://www.w3.org/Graphics/SVG/1.1/DTD/svg11.dtd">
<!-- Creator: CorelDRAW X7 -->
<svg xmlns="http://www.w3.org/2000/svg" xml:space="preserve" version="1.1" style="shape-rendering:geometricPrecision; text-rendering:geometricPrecision; image-rendering:optimizeQuality; fill-rule:evenodd; clip-rule:evenodd"
viewBox="0 0 514 514"
 xmlns:xlink="http://www.w3.org/1999/xlink">
 <defs>
  <style type="text/css">
   <![CDATA[
    .fil1 {fill:#8F4FAD}
    .fil0 {fill:#8F4FAD;fill-rule:nonzero}
   ]]>
  </style>
 </defs>
 <g id="Layer_x0020_1">
  <metadata id="CorelCorpID_0Corel-Layer"/>
  <path class="fil0" d="M204 106c56,0 107,23 144,60 36,37 59,88 59,144 0,56 -23,107 -59,144 -37,37 -88,60 -144,60 -57,0 -108,-23 -144,-60 -37,-37 -60,-88 -60,-144 0,-56 23,-107 60,-144 36,-37 87,-60 144,-60zm-16 123l31 0 0 74 67 0 0 24 -67 0 -31 0 0 -24 0 -74zm180 98l-43 0 0 -30 44 0c-3,-41 -21,-77 -48,-104 -27,-27 -62,-45 -102,-48l0 46 -31 0 0 -46c-39,3 -75,21 -102,48 -27,27 -44,63 -48,104l44 0 0 30 -43 0c4,39 21,74 47,100 27,27 63,44 102,48l0 -42 31 0 0 42c40,-4 75,-21 102,-48 26,-26 43,-61 47,-100z"/>
  <path class="fil1" d="M283 86c80,0 145,65 145,145 0,10 -1,20 -3,30 6,20 9,40 9,61l10 0c2,-5 7,-13 10,-19 2,-6 6,-16 7,-23 1,-1 0,0 2,-1 0,0 2,-1 2,-1 2,0 4,0 6,0 5,0 20,-2 26,-3 13,-2 11,-2 17,-11l0 -66c-3,-4 -3,-7 -8,-9 -1,0 -3,0 -4,0l-3 -1 -36 -5c-2,0 0,0 -2,0l-4 -15 -1 -2c-1,0 -1,0 -1,-1l0 -1c0,0 0,0 0,0l-1 -1c-1,-7 -8,-18 -11,-24 2,-3 4,-5 6,-8 1,-2 1,-1 2,-3 0,0 1,-1 1,-1 1,-1 1,-1 2,-2 9,-13 22,-23 16,-34l-26 -26c-12,-11 -20,-24 -31,-22 -6,1 -24,18 -30,22 -1,1 0,0 -1,1 0,1 -1,1 -1,1 -2,1 -1,1 -3,2 -5,2 0,3 -10,-2 -44,-23 -35,3 -41,-45 -2,-17 -1,-15 -11,-22l-66 0c-4,3 -7,3 -9,8 -2,4 -3,24 -4,30l-3 15 -24 8c-1,1 0,1 -1,1 -1,1 -1,1 -2,1 -1,1 -2,1 -3,1l-13 7 -1 -1 0 13 2 0c20,0 39,2 57,7 11,-3 22,-4 34,-4z"/>
 </g>
</svg>
