<?xml version="1.0" encoding="UTF-8"?>
<!DOCTYPE svg PUBLIC "-//W3C//DTD SVG 1.1//EN" "http://www.w3.org/Graphics/SVG/1.1/DTD/svg11.dtd">
<!-- Creator: CorelDRAW X7 -->
<svg xmlns="http://www.w3.org/2000/svg" xml:space="preserve" version="1.1" style="shape-rendering:geometricPrecision; text-rendering:geometricPrecision; image-rendering:optimizeQuality; fill-rule:evenodd; clip-rule:evenodd"
viewBox="0 0 201 201"
 xmlns:xlink="http://www.w3.org/1999/xlink">
 <defs>
  <style type="text/css">
   <![CDATA[
    .fil0 {fill:#019CC4}
   ]]>
  </style>
 </defs>
 <g id="Layer_x0020_1">
  <metadata id="CorelCorpID_0Corel-Layer"/>
  <path class="fil0" d="M99 139l41 -67 -15 -10 -32 50 -21 -15 -11 14 38 28zm2 -102c35,0 63,29 63,64 0,35 -28,63 -63,63 -35,0 -64,-28 -64,-63 0,-35 29,-64 64,-64zm-32 -10c0,0 0,0 -1,0 0,0 0,0 0,0 -1,1 -1,1 -2,1l-6 3c-1,-1 -2,-2 -3,-3 -1,0 -1,0 -2,-1 0,-1 0,0 -1,-1 -1,0 0,0 -1,0 -4,-4 -9,-9 -13,-7 -2,1 -9,9 -11,11 -2,2 -10,9 -10,11 -1,4 1,6 3,8 1,1 3,4 4,6 0,0 0,0 0,0 1,0 1,0 1,0l1 2 3 3c-1,3 -4,8 -5,11l-1 2c0,1 -1,6 -2,7 -1,0 -11,1 -13,1 -8,1 -7,1 -10,5l0 29c3,4 2,4 10,5 15,2 12,0 15,7 0,2 1,3 1,5 2,3 4,6 5,9 -1,1 -2,2 -3,3 0,1 0,1 -1,2 0,0 0,0 0,0 0,0 0,0 -1,1 -1,2 -3,4 -5,6 -1,2 -3,5 -2,8 1,1 10,10 12,12 4,4 8,10 13,9 1,0 11,-7 13,-9 0,-1 0,0 1,-1 0,0 0,0 0,0 0,0 1,0 1,-1l1 -1c3,1 6,3 10,5 11,5 9,0 11,10 0,2 0,4 0,7 1,8 1,6 5,9l29 0c4,-2 4,-2 5,-7 0,-3 1,-9 1,-12 0,0 0,-1 0,-2 0,0 0,0 0,-1 0,-1 0,0 0,0 1,-1 0,-1 2,-1 3,-1 5,-1 9,-4l8 -3c1,-1 1,0 2,0 1,1 1,1 1,1l1 1c0,0 0,0 0,0l0 0c1,0 1,0 2,1 0,0 0,0 0,0 0,1 0,0 1,1 6,3 8,9 13,7 3,-1 14,-13 17,-16 9,-8 6,-8 0,-16 -1,-2 -1,-2 -2,-3l-2 -3c-1,-1 -2,-2 -3,-3 1,-3 4,-6 5,-9 1,-3 3,-7 3,-10 0,-1 0,0 1,-1 0,0 1,0 1,0 1,0 1,0 2,0 3,0 9,-1 12,-1 5,-1 5,-1 7,-5l0 -29c-1,-1 -1,-3 -4,-4 0,0 -1,0 -1,0l-1 0 -16 -2c-1,-1 0,0 -1,-1l-2 -6 0 -1c0,0 0,0 0,0l-1 -1c0,0 0,0 0,0l0 0c0,-3 -4,-8 -5,-11 1,-1 2,-2 3,-3 0,-1 0,-1 1,-1 0,0 0,-1 0,-1 1,0 0,0 1,0 4,-6 10,-10 7,-15l-12 -12c-5,-5 -8,-10 -13,-9 -2,0 -10,8 -13,9 0,1 0,0 0,1 0,0 -1,0 -1,0 0,1 0,1 -1,1 -2,1 0,2 -5,-1 -18,-10 -15,1 -17,-19 -1,-8 -1,-7 -5,-10l-29 0c-1,1 -3,1 -4,4 0,1 -1,10 -1,12l-2 7 -10 4z"/>
 </g>
</svg>
