<?xml version="1.0" encoding="UTF-8"?>
<!DOCTYPE svg PUBLIC "-//W3C//DTD SVG 1.1//EN" "http://www.w3.org/Graphics/SVG/1.1/DTD/svg11.dtd">
<!-- Creator: CorelDRAW X7 -->
<svg xmlns="http://www.w3.org/2000/svg" xml:space="preserve" version="1.1" style="shape-rendering:geometricPrecision; text-rendering:geometricPrecision; image-rendering:optimizeQuality; fill-rule:evenodd; clip-rule:evenodd"
viewBox="0 0 1632 1004"
 xmlns:xlink="http://www.w3.org/1999/xlink">
 <defs>
  <style type="text/css">
   <![CDATA[
    .fil0 {fill:#EAE100}
   ]]>
  </style>
 </defs>
 <g id="Layer_x0020_1">
  <metadata id="CorelCorpID_0Corel-Layer"/>
  <path class="fil0" d="M1499 410l133 -13 0 -123c0,0 -1,0 -1,0l-126 0 -73 76 -85 -251 -1 -2c0,0 -106,-97 -523,-97 -2,0 -4,0 -7,0 -2,0 -4,0 -7,0 -417,0 -523,97 -523,97l-1 2 -84 251 -74 -76 -125 0c-1,0 -1,0 -2,0l0 123 133 13 13 25c-41,40 -50,122 -26,238 2,9 5,32 5,60l0 264c0,4 3,7 7,7l207 0c4,0 7,-3 7,-7l0 -212 941 0 0 212c0,4 3,7 6,7l208 0c3,0 6,-3 6,-7l0 -264c0,-28 3,-51 5,-60 25,-116 16,-198 -26,-238l13 -25zm-947 240l-260 2 -22 -113 289 16 -7 95zm-282 -247l90 -266c11,-7 40,-20 105,-32 85,-15 200,-22 344,-22 3,0 5,0 7,0 3,0 5,0 7,0 144,0 260,7 344,22 66,12 94,25 106,32l89 266 -1092 0zm1071 249l-261 -2 -7 -95 290 -16 -22 113z"/>
 </g>
</svg>
