<?xml version="1.0" encoding="UTF-8"?>
<!DOCTYPE svg PUBLIC "-//W3C//DTD SVG 1.1//EN" "http://www.w3.org/Graphics/SVG/1.1/DTD/svg11.dtd">
<!-- Creator: CorelDRAW X7 -->
<svg xmlns="http://www.w3.org/2000/svg" xml:space="preserve" version="1.1" style="shape-rendering:geometricPrecision; text-rendering:geometricPrecision; image-rendering:optimizeQuality; fill-rule:evenodd; clip-rule:evenodd"
viewBox="0 0 227 269"
 xmlns:xlink="http://www.w3.org/1999/xlink">
 <defs>
  <style type="text/css">
   <![CDATA[
    .fil0 {fill:#BC0172}
   ]]>
  </style>
 </defs>
 <g id="Layer_x0020_1">
  <metadata id="CorelCorpID_0Corel-Layer"/>
  <path class="fil0" d="M30 252c0,0 39,17 80,17 1,0 3,0 3,0 0,0 3,0 3,0 42,0 80,-17 80,-17 19,3 31,-14 31,-14l-5 -39c-4,-35 -36,-41 -43,-43 -6,-2 -30,-8 -33,-16 -1,-2 -1,-7 -1,-12 32,-38 38,-128 -28,-128 0,0 0,0 -4,0 -3,0 -4,0 -4,0 -70,9 -59,90 -28,128 1,5 1,10 -1,12 -3,8 -26,14 -33,16 -6,2 -39,8 -42,43l-5 39c0,0 12,17 30,14z"/>
 </g>
</svg>
