<?xml version="1.0" encoding="UTF-8"?>
<!DOCTYPE svg PUBLIC "-//W3C//DTD SVG 1.1//EN" "http://www.w3.org/Graphics/SVG/1.1/DTD/svg11.dtd">
<!-- Creator: CorelDRAW X7 -->
<svg xmlns="http://www.w3.org/2000/svg" xml:space="preserve" version="1.1" style="width:100%;height:100%;shape-rendering:geometricPrecision; text-rendering:geometricPrecision; image-rendering:optimizeQuality; fill-rule:evenodd; clip-rule:evenodd"
viewBox="0 0 28297 28656"
 xmlns:xlink="http://www.w3.org/1999/xlink">
 <defs>
  <style type="text/css">
   <![CDATA[
    .str2 {stroke:#FEFEFE;stroke-width:8.74038}
    .str4 {stroke:#FEFEFE;stroke-width:8.74038}
    .str7 {stroke:#009E63;stroke-width:8.74038}
    .str6 {stroke:#019CC4;stroke-width:8.74038}
    .str5 {stroke:#E6007F;stroke-width:8.74038}
    .str3 {stroke:#FEFEFE;stroke-width:8.74038;stroke-linecap:round;stroke-linejoin:round}
    .str1 {stroke:#019CC4;stroke-width:74.0753;stroke-linecap:round;stroke-dasharray:244.730769 367.096154}
    .str0 {stroke:#BC0174;stroke-width:74.0753;stroke-linecap:round;stroke-dasharray:244.730769 367.096154}
    .fil2 {fill:none;fill-rule:nonzero}
    .fil0 {fill:#FEFEFE}
    .fil4 {fill:#FEFEFE;fill-rule:nonzero}
    .fil3 {fill:#009E63;fill-rule:nonzero}
    .fil6 {fill:#019CC4;fill-rule:nonzero}
    .fil1 {fill:#BC0174;fill-rule:nonzero}
    .fil5 {fill:#E6007F;fill-rule:nonzero}
   ]]>
  </style>
 </defs>
 <g id="Layer_x0020_1">
  <metadata id="CorelCorpID_0Corel-Layer"/>
  <path class="fil0" d="M8804 22408c1104,965 2631,1522 3967,1670 589,66 895,457 1946,243 2114,-431 4621,-1279 5998,-3232 344,-489 804,-1202 1006,-1904 175,-606 904,-1367 850,-2630 -110,-2558 -741,-5750 -2740,-7833 -1022,-1065 -2518,-1901 -4271,-2230 -1891,-355 -4057,-138 -5522,509 -4429,1955 -5764,6543 -4379,10891 532,1670 1642,3202 3145,4516z"/>
  <g id="_624704700336">
   <g>
    <path class="fil1" d="M20705 25583l2087 2660c44,56 35,138 -22,182l-259 204c-56,44 -138,34 -182,-22l-2088 -2660c-44,-57 -34,-138 22,-182l260 -204c56,-44 137,-34 182,22z"/>
    <path class="fil1" d="M21036 27473c63,80 916,-277 1082,-427 139,-126 662,-823 827,-1044 14,-19 -5,-44 -27,-35 -254,108 -1056,451 -1211,556 -185,125 -734,869 -671,950z"/>
    <path class="fil1" d="M22414 25593l775 987c22,28 17,69 -11,91l-168 131c-28,23 -68,18 -90,-11l-775 -987c-22,-28 -17,-68 11,-91l167 -131c28,-22 69,-17 91,11z"/>
    <g>
     <path class="fil1" d="M21893 26944l-9 79 362 44c-29,29 -33,75 -7,108 28,35 79,41 115,14l96 -76c36,-28 42,-80 14,-115 -27,-35 -79,-42 -114,-14l-17 13 -440 -53z"/>
     <path class="fil1" d="M21753 26765l-79 -10 43 -361c-35,21 -81,13 -106,-20 -28,-35 -22,-86 14,-114l96 -76c36,-28 87,-22 115,14 28,35 22,86 -14,114l-16 13 -53 440z"/>
    </g>
   </g>
   <path class="fil2 str0" d="M28260 14922c0,5092 -2699,9553 -6743,12032"/>
  </g>
  <path class="fil2 str1" d="M37 14819c0,-5581 3242,-10404 7945,-12691"/>
  <g id="_624704709840">
   <g>
    <path class="fil3" d="M21469 1659c-5,5 -7,9 -6,14 1,14 24,28 64,39 124,-43 256,-71 392,-84 -156,-6 -308,4 -450,31z"/>
    <path class="fil4" d="M21694 1742c-70,-7 -127,-18 -167,-30 124,-43 256,-71 392,-84 -78,23 -154,61 -225,114z"/>
    <path class="fil3" d="M21929 1755c-27,-1 -55,-1 -84,-2 -55,-2 -106,-6 -151,-11 71,-53 147,-91 225,-114 4,28 7,70 10,127z"/>
    <path class="fil4" d="M22155 1746c-67,6 -145,9 -226,9 -3,-57 -6,-99 -10,-127 82,24 161,64 236,118z"/>
    <path class="fil3" d="M22316 1718c-39,12 -95,21 -161,28 -75,-54 -154,-94 -236,-118 138,15 272,45 397,90z"/>
    <path class="fil4" d="M22307 1639c-122,-20 -253,-24 -388,-11 138,15 272,45 397,90 26,-7 44,-16 53,-25 4,-5 6,-10 5,-15 -2,-13 -26,-27 -67,-39z"/>
    <g>
     <path class="fil4" d="M21463 1673c-1,-5 1,-9 6,-14 -245,46 -460,141 -624,288 -10,11 -15,22 -14,33 4,34 59,66 154,94 142,-167 330,-287 542,-362 -40,-11 -63,-25 -64,-39z"/>
    </g>
    <path class="fil3" d="M21381 2145c-165,-18 -301,-42 -396,-71 142,-167 330,-287 542,-362 40,12 97,23 167,30 -123,91 -231,225 -313,403z"/>
    <g>
     <path class="fil4" d="M21940 2174c-65,0 -132,-1 -198,-4 -131,-5 -253,-14 -361,-25 82,-178 190,-312 313,-403 45,5 96,9 151,11 29,1 57,1 84,2 5,97 9,238 11,419z"/>
    </g>
    <path class="fil3" d="M22476 2153c-158,15 -342,23 -536,21 -2,-181 -6,-322 -11,-419 81,0 159,-3 226,-9 127,92 238,228 321,407z"/>
    <g>
     <path class="fil4" d="M22861 2088c-92,28 -226,50 -385,65 -83,-179 -194,-315 -321,-407 66,-7 122,-16 161,-28 215,78 404,202 545,370z"/>
    </g>
    <path class="fil3" d="M22999 1993c-2,-10 -8,-20 -19,-30 -97,-88 -157,-123 -248,-176 -95,-48 -121,-58 -207,-91 -23,-8 -54,-17 -77,-25 -45,-13 -92,-24 -141,-32 41,12 65,26 67,39 1,5 -1,10 -5,15 -9,9 -27,18 -53,25 215,78 404,202 545,370 61,-17 103,-38 124,-60 11,-11 16,-23 14,-35z"/>
    <path class="fil3" d="M20831 1980c-1,-11 4,-22 14,-33 -17,16 -35,33 -51,50 -36,41 -80,97 -112,140 -38,59 -39,61 -93,178 -26,66 -26,66 -58,202l-11 67c0,3 0,7 0,10 4,42 75,84 197,120 29,-260 126,-473 268,-640 -95,-28 -150,-60 -154,-94z"/>
    <g>
     <path class="fil4" d="M21224 2804c-211,-22 -385,-54 -507,-90 29,-260 126,-473 268,-640 95,29 231,53 396,71 -83,177 -139,397 -157,659z"/>
    </g>
    <path class="fil3" d="M21941 2843c-84,-1 -169,-3 -255,-6 -167,-6 -323,-18 -462,-33 18,-262 74,-482 157,-659 108,11 230,20 361,25 66,3 133,4 198,4 3,182 3,406 1,669z"/>
    <g>
     <path class="fil4" d="M22628 2815c-204,19 -439,29 -687,28 2,-263 2,-487 -1,-669 194,2 378,-6 536,-21 84,179 138,400 152,662z"/>
    </g>
    <path class="fil3" d="M23121 2732c-118,36 -290,64 -493,83 -14,-262 -68,-483 -152,-662 159,-15 293,-37 385,-65 142,169 236,384 260,644z"/>
    <g>
     <path class="fil4" d="M23297 2608l1 3c2,15 -4,30 -18,44 -27,29 -82,54 -159,77 -24,-260 -118,-475 -260,-644 61,-17 103,-38 124,-60 11,-11 16,-23 14,-35 162,155 270,359 298,615z"/>
    </g>
    <path class="fil4" d="M23035 2019c143,171 222,308 262,589 -28,-256 -136,-460 -298,-615 -2,-10 -8,-20 -19,-30l55 56z"/>
    <path class="fil4" d="M20516 2898c-3,-47 -7,-108 -7,-155 3,-47 6,-111 11,-159 0,3 0,7 0,10 -7,49 -10,100 -11,154 0,50 2,100 7,150z"/>
    <g>
     <path class="fil4" d="M20825 3494c-99,-29 -160,-62 -175,-96 -23,-58 -52,-136 -72,-196 -38,-142 -40,-148 -52,-224l-10 -80c-5,-50 -7,-100 -7,-150 1,-54 4,-105 11,-154 4,42 75,84 197,120 -6,50 -9,102 -10,155 -2,225 45,434 118,625z"/>
    </g>
    <path class="fil3" d="M21282 3576c-190,-21 -347,-49 -457,-82 -73,-191 -120,-400 -118,-625 1,-53 4,-105 10,-155 122,36 296,68 507,90 -4,51 -6,102 -6,156 -3,225 23,430 64,616z"/>
    <g>
     <path class="fil4" d="M21930 3610c-76,0 -153,-2 -230,-5 -151,-6 -292,-16 -418,-29 -41,-186 -67,-391 -64,-616 0,-54 2,-105 6,-156 139,15 295,27 462,33 86,3 171,5 255,6 0,50 -1,102 -1,155 -3,225 -6,429 -10,612z"/>
    </g>
    <path class="fil3" d="M22550 3585c-184,18 -397,27 -620,25 4,-183 7,-387 10,-612 0,-53 1,-105 1,-155 248,1 483,-9 687,-28 2,50 4,102 3,156 -2,224 -34,430 -81,614z"/>
    <g>
     <path class="fil4" d="M22995 3511c-107,32 -262,57 -445,74 47,-184 79,-390 81,-614 1,-54 -1,-106 -3,-156 203,-19 375,-47 493,-83 5,50 7,102 6,155 -2,225 -54,434 -132,624z"/>
    </g>
    <path class="fil3" d="M23306 2772c-9,154 -9,154 -22,234 -32,148 -32,148 -57,223 -21,59 -52,137 -76,194 -3,6 -7,12 -13,18 -24,26 -73,49 -143,70 78,-190 130,-399 132,-624 1,-53 -1,-105 -6,-155 77,-23 132,-48 159,-77 14,-14 20,-29 18,-44 3,48 9,112 8,161z"/>
    <path class="fil3" d="M21173 4115c-57,-17 -96,-36 -111,-56 -20,-25 -46,-58 -65,-83 -80,-108 -84,-114 -123,-172 -77,-120 -80,-124 -115,-187 -69,-130 -71,-133 -101,-201l-8 -18c15,34 76,67 175,96 90,237 220,446 348,621z"/>
    <g>
     <path class="fil4" d="M21480 4169c-128,-14 -233,-32 -307,-54 -128,-175 -258,-384 -348,-621 110,33 267,61 457,82 51,229 125,428 198,593z"/>
    </g>
    <path class="fil3" d="M21913 4192c-50,0 -102,-1 -154,-3 -101,-4 -195,-11 -279,-20 -73,-165 -147,-364 -198,-593 126,13 267,23 418,29 77,3 154,5 230,5 -5,227 -11,421 -17,582z"/>
    <g>
     <path class="fil4" d="M22329 4176c-123,11 -266,17 -416,16 6,-161 12,-355 17,-582 223,2 436,-7 620,-25 -59,229 -141,427 -221,591z"/>
    </g>
    <path class="fil3" d="M22627 4126c-72,21 -175,38 -298,50 80,-164 162,-362 221,-591 183,-17 338,-42 445,-74 -97,235 -234,442 -368,615z"/>
    <g>
     <path class="fil4" d="M23143 3441c-66,132 -66,132 -106,199 -75,123 -75,123 -119,185 -82,114 -82,114 -126,170 -20,24 -46,57 -66,81 -1,1 -2,2 -3,3 -16,17 -49,33 -96,47 134,-173 271,-380 368,-615 70,-21 119,-44 143,-70 6,-6 10,-12 13,-18l-8 18z"/>
    </g>
    <g>
     <path class="fil4" d="M21503 4530c-30,-8 -50,-18 -59,-28l-8 -9c-26,-30 -26,-30 -89,-101 -36,-41 -69,-83 -107,-121 -69,-80 -86,-99 -119,-139l-59 -73c15,20 54,39 111,56 123,169 244,306 323,407 2,3 4,5 7,8z"/>
    </g>
    <path class="fil3" d="M21667 4560c-68,-8 -125,-18 -164,-30 -3,-3 -5,-5 -7,-8 -79,-101 -200,-238 -323,-407 74,22 179,40 307,54 70,160 138,288 183,383 1,2 3,5 4,8z"/>
    <g>
     <path class="fil4" d="M21900 4572c-27,0 -55,-1 -83,-2 -54,-2 -105,-5 -150,-10 -1,-3 -3,-6 -4,-8 -45,-95 -113,-223 -183,-383 84,9 178,16 279,20 52,2 104,3 154,3 -5,156 -10,280 -13,373 0,2 0,4 0,7z"/>
    </g>
    <path class="fil3" d="M22123 4563c-67,6 -143,10 -223,9 0,-3 0,-5 0,-7 3,-93 8,-217 13,-373 150,1 293,-5 416,-16 -78,158 -153,285 -202,380 -2,2 -3,4 -4,7z"/>
    <g>
     <path class="fil4" d="M22723 4079c-16,17 -49,33 -96,47 -72,21 -175,38 -298,50 -78,158 -153,285 -202,380 -2,2 -3,4 -4,7 65,-6 121,-15 159,-27 26,-7 43,-15 52,-25 3,-3 5,-6 8,-8 50,-56 50,-56 91,-100 6,-6 69,-74 110,-119 34,-36 44,-48 122,-136l61 -72c-1,1 -2,2 -3,3z"/>
    </g>
    <path class="fil3" d="M21852 4870c-5,-2 -6,-2 -12,-5 -24,-14 -26,-15 -46,-29 -34,-24 -34,-24 -53,-40 -37,-31 -37,-31 -56,-49 -37,-34 -39,-35 -57,-53 -33,-32 -39,-38 -54,-54 -29,-29 -40,-40 -50,-51 -14,-15 -27,-30 -42,-44 -10,-12 -20,-24 -31,-35l-7 -8c9,10 29,20 59,28 52,65 248,294 349,340z"/>
    <g>
     <path class="fil4" d="M21875 4878c-8,-2 -14,-4 -23,-8 -101,-46 -297,-275 -349,-340 39,12 96,22 164,30 31,64 155,299 208,318z"/>
    </g>
    <path class="fil3" d="M21886 4879l-1 0 -1 0c-4,0 -4,0 -9,-1 -53,-19 -177,-254 -208,-318 45,5 96,8 150,10 28,1 56,2 83,2 -3,65 -12,307 -14,307z"/>
    <g>
     <path class="fil4" d="M21891 4879l-1 0c-1,0 -2,0 -3,0l-1 0c2,0 11,-242 14,-307 80,1 156,-3 223,-9 -36,66 -178,311 -232,316z"/>
    </g>
    <path class="fil3" d="M22282 4536c-38,12 -94,21 -159,27 -36,66 -178,311 -232,316l1 0c1,0 2,-1 3,-1 2,0 3,0 5,0 2,-1 5,-2 7,-2l1 -1c10,-3 11,-4 26,-11 108,-57 278,-225 369,-320 13,-13 23,-24 31,-33 -9,10 -26,18 -52,25z"/>
   </g>
   <path class="fil3" d="M22120 5239c8,-3 11,-12 8,-19 -4,-8 -13,-11 -20,-8l-9 5c-2,-6 -4,-11 -7,-15 7,-3 11,-10 9,-18l-45 -222c-1,-4 -2,-8 -5,-12l25 -183c1,-5 -3,-10 -8,-11 -6,-1 -11,3 -11,8l-24 172c-6,-3 -13,-5 -20,-8l14 -121c0,-5 -3,-10 -9,-11 -5,-1 -10,4 -11,9l-13 116c-3,-1 -6,-1 -9,-2l5 -129c0,-6 -4,-10 -10,-10 -5,-1 -10,4 -10,9l-5 126c-17,-3 -34,-5 -52,-6l2 -33c0,-5 -5,-10 -10,-10 -5,-1 -10,4 -10,9l-1 34c-5,-1 -9,-1 -13,-1l-2 -31c0,-5 -5,-10 -11,-9 -5,0 -9,5 -9,10l2 30c-10,1 -23,4 -38,8l-6 -127c0,-6 -5,-10 -10,-9 -6,0 -10,4 -10,10l7 131c-4,1 -8,3 -12,4l-17 -112c-1,-5 -6,-9 -12,-8 -5,1 -9,6 -8,11l18 116c-10,5 -19,9 -27,14l-45 -198c-2,-5 -7,-8 -12,-7 -6,1 -9,6 -8,12l48 207c-3,3 -5,7 -5,10 -1,5 0,11 4,16l-52 158c-2,6 -1,13 3,17 0,1 0,1 0,3 1,12 2,25 3,37 -6,-3 -12,-7 -17,-10 -7,-5 -16,-3 -20,4 -5,7 -3,16 4,20 10,7 23,15 38,23 2,16 4,31 6,46 -4,6 -7,12 -9,19 -5,22 6,37 22,43 8,32 18,57 30,67 25,21 125,70 172,70 0,0 0,1 0,1 52,8 165,-38 169,-63 1,-8 7,-30 13,-57 16,-5 28,-20 23,-44 -2,-8 -7,-16 -12,-23 2,-17 4,-35 3,-50 1,0 3,-1 4,-2l12 -6zm-92 -244l0 0 32 156c-16,-15 -41,-30 -85,-48 -21,-8 -40,-13 -56,-16l-2 -67c1,0 1,0 2,0 50,-6 86,-14 109,-25zm-144 26l0 0 2 66c-2,-1 -5,-2 -7,-2 0,0 0,-1 0,-1l4 -63c0,0 0,0 1,0zm131 -57l0 0c-7,4 -19,7 -33,10l1 -21c11,3 22,7 32,11zm-51 -15l0 0 -2 30c-14,3 -30,6 -47,8 -2,0 -3,0 -5,0l2 -44c18,1 35,3 52,6zm-73 38l0 0c-2,0 -4,0 -6,0l3 -45c1,0 3,0 4,0l-1 45zm-37 -44l0 0 -2 40c-9,-1 -17,-3 -25,-4l-2 -30c10,-3 20,-5 29,-6zm-47 32l0 0c-10,-2 -20,-5 -28,-7 -1,0 -2,0 -3,-1 8,-3 19,-7 30,-11l1 19zm43 42l0 0 -4 65c0,1 0,2 0,3 -44,6 -102,31 -134,56l48 -143c3,1 7,2 11,3 23,6 51,12 79,16z"/>
  </g>
  <g id="_624704733968">
   <path class="fil4 str2" d="M10132 6701l462 601 146 -92 -524 -570c32,-46 39,-108 14,-162 -33,-70 -109,-105 -181,-89l-100 -318c84,-45 118,-148 77,-234 -42,-90 -149,-128 -239,-85 -49,23 -82,66 -96,115l-395 -30c-2,-20 -7,-41 -17,-62 -43,-89 -150,-128 -240,-85 -90,43 -128,150 -86,240 8,16 17,29 28,41l-243 334c-48,-22 -104,-24 -154,0 -90,43 -129,151 -86,241 41,85 140,124 227,90l184 280c-51,48 -68,124 -37,190 25,53 74,86 127,92l113 813 164 -55 -177 -777c32,-17 56,-44 70,-75l384 84c-2,29 3,58 16,86 41,86 144,123 231,82 86,-41 123,-144 82,-230 -11,-23 -26,-42 -44,-57l207 -365c28,7 58,6 87,-3zm-561 421l0 0 -387 -85c0,-24 -5,-48 -16,-71 -6,-12 -13,-23 -21,-33l157 -196c54,50 133,69 207,47l116 274c-24,16 -43,39 -56,64zm-604 -241l0 0 -184 -280c23,-21 39,-46 48,-74l403 56c1,30 8,60 21,88 2,4 4,7 5,10l-167 209c-38,-19 -83,-23 -126,-9zm917 -789l0 0 102 326c-32,24 -53,60 -61,98l-267 16c-4,-15 -9,-30 -16,-45 -13,-28 -31,-51 -53,-70l211 -336c26,10 55,14 84,11zm-194 939l0 0 -118 -277c52,-36 84,-93 90,-154l264 -16c3,11 7,22 12,32 11,23 27,43 46,58l-205 362c-28,-10 -59,-12 -89,-5zm-4 -1096l0 0c3,19 8,38 16,56 10,21 24,39 40,54l-211 336c-44,-18 -93,-22 -141,-8l-175 -369c36,-24 61,-59 73,-99l398 30zm-651 78l0 0c36,19 78,25 118,16l177 372c-42,28 -72,69 -86,115l-403 -57c-1,-23 -7,-46 -17,-68 -8,-17 -19,-32 -31,-46l242 -332z"/>
   <path class="fil4 str2" d="M13856 3693l-145 -228 -29 -205 -202 -510 -56 546 38 204 -102 261 20 147 -45 14 239 1737 -243 15 -18 -3 -20 -147 -46 -73 -18 82 18 129 -29 -5 -21 -152 -47 -74 -17 82 18 135 -29 -5 -22 -158 -46 -73 -18 82 19 140 -29 -5 -23 -163 -46 -73 -17 82 20 145 -30 -5 -23 -168 -46 -73 -18 82 21 150 -30 -5 -24 -173 -46 -73 -17 81 21 155 -25 -3 -74 -390 -54 -393 -65 -154 -35 160 30 323 -28 2 -55 -403 -64 -153 -36 160 38 404 -133 9 -48 -350 -65 -154 -35 160 33 351 -90 6 -54 -392 -65 -154 -35 161 37 393 -1 0 30 217 -357 49 -23 -167 0 0 -44 -322 -65 -153 -35 160 29 313 -110 -1 -55 -406 -65 -153 -36 160 39 404 -72 9 -38 -277 -65 -153 -36 160 27 284 -137 17 -48 -348 -65 -154 -35 161 39 419 3 17 -654 229 209 1550 751 -104 0 -1 2055 -282 1154 -159 -312 -2271 -63 -457 -109 -222zm-180 605l0 0c-83,12 -160,-47 -171,-130 -12,-83 46,-160 130,-171 83,-12 160,47 171,130 11,83 -47,160 -130,171z"/>
   <g>
    <g>
     <path class="fil4 str2" d="M1453 13966l82 11 -54 411 -82 -11 -14 109 4059 534 14 -108 -197 -26 55 -412 196 26 14 -109 -4058 -534 -15 109zm1248 236l0 0 -36 267c-4,36 -40,60 -79,55l-265 -35c-39,-5 -67,-38 -62,-74l35 -266c5,-36 40,-61 80,-56l264 35c39,5 67,39 63,74zm293 -10l0 0 384 51c39,5 68,36 63,70l-33 251c-4,34 -40,57 -79,52l-384 -51c-39,-5 -68,-37 -63,-70l33 -251c4,-34 40,-57 79,-52zm1043 485l0 0 -327 -43c-39,-5 -67,-41 -62,-80l26 -200c5,-39 42,-67 81,-62l327 43 3 -23 297 39 165 216 -251 192 -265 -35 6 -47zm543 -67l0 0 159 207 -366 -48 207 -159zm432 18l0 0 -183 141 43 -325 140 184zm-88 -205l0 0 304 40 -172 131 -132 -171zm-151 348l0 0 -149 -194 194 -150 -45 344zm273 -100l0 0 159 207 -366 -48 207 -159zm43 -33l0 0 167 -128 -39 294 -128 -166zm-327 -237l0 0 -171 132 -132 -172 303 40zm-3026 37l0 0c-39,-6 -67,-42 -61,-81l38 -293c5,-39 41,-67 81,-61l254 33c39,5 66,41 61,81l-38 292c-5,40 -41,67 -81,62l-254 -33z"/>
     <path class="fil4 str2" d="M3496 16442l36 5 -24 183 -36 -5 -7 49 1807 237 6 -48 -87 -12 24 -183 88 12 6 -49 -1807 -238 -6 49zm555 105l0 0 -16 119c-2,16 -18,27 -35,25l-118 -16c-17,-2 -30,-17 -28,-33l16 -119c2,-16 18,-27 35,-24l118 15c18,3 30,17 28,33zm131 -4l0 0 171 22c17,3 30,17 28,31l-15 112c-2,15 -18,25 -35,23l-171 -22c-18,-3 -30,-17 -28,-32l14 -111c2,-15 18,-26 36,-23zm464 216l0 0 -146 -20c-17,-2 -30,-18 -27,-35l11 -89c3,-18 19,-30 36,-28l146 19 1 -10 132 17 74 96 -112 86 -118 -16 3 -20zm242 -30l0 0 70 92 -162 -22 92 -70zm192 8l0 0 -82 62 19 -144 63 82zm-39 -92l0 0 135 18 -77 59 -58 -77zm-67 155l0 0 -67 -86 87 -67 -20 153zm121 -44l0 0 71 92 -163 -21 92 -71zm19 -15l0 0 74 -57 -17 131 -57 -74zm-145 -105l0 0 -77 58 -58 -76 135 18zm-1347 16l0 0c-18,-2 -30,-18 -28,-36l17 -130c3,-18 19,-30 36,-28l113 15c18,2 30,19 28,36l-17 130c-3,18 -19,30 -36,28l-113 -15z"/>
     <polygon class="fil4 str2" points="5464,14865 5436,15083 5257,15059 5285,14842 "/>
     <polygon class="fil4 str2" points="5533,14345 5504,14562 5325,14539 5354,14321 "/>
     <polygon class="fil4 str2" points="5721,14299 5612,15133 5413,15107 5522,14273 "/>
     <polygon class="fil4 str2" points="5281,16842 5268,16939 5189,16929 5202,16832 "/>
     <polygon class="fil4 str2" points="5312,16611 5299,16707 5219,16697 5232,16600 "/>
     <polygon class="fil4 str2" points="5396,16590 5347,16961 5258,16950 5307,16579 "/>
     <path class="fil2 str3" d="M4102 12874c-175,199 -871,716 -1276,938 -405,221 -1435,628 -1435,628 0,0 1280,508 1851,820 572,311 1179,642 1240,910 61,268 -482,412 -671,447 -189,35 -343,36 -343,36 0,0 1151,268 1320,382"/>
     <path class="fil2 str3" d="M4003 12321c-176,199 -781,687 -1184,955 -384,256 -1360,648 -1360,648 0,0 1240,552 1806,873 727,412 1153,685 1235,1120 51,270 -330,393 -520,428 -189,35 -482,76 -482,76 0,0 1095,318 1263,431"/>
     <path class="fil4 str2" d="M4300 15066c203,1382 533,2187 641,2389l42 -77 77 -145c0,0 -368,-900 -507,-2186 -36,-328 -128,-1784 -200,-2965l-140 -18 -236 -31c93,1045 216,2311 323,3033z"/>
    </g>
    <g>
     <line class="fil2 str4" x1="3073" y1="13098" x2="4130" y2= "13237" />
     <line class="fil2 str4" x1="2878" y1="13246" x2="4193" y2= "13419" />
     <line class="fil2 str4" x1="2633" y1="13388" x2="4170" y2= "13590" />
     <line class="fil2 str4" x1="2358" y1="13526" x2="4182" y2= "13766" />
     <line class="fil2 str4" x1="2064" y1="13661" x2="4216" y2= "13944" />
     <line class="fil2 str4" x1="1769" y1="13796" x2="4324" y2= "14133" />
     <line class="fil2 str4" x1="1932" y1="14661" x2="4324" y2= "14976" />
     <line class="fil2 str4" x1="2494" y1="14902" x2="4359" y2= "15148" />
     <line class="fil2 str4" x1="2899" y1="15087" x2="4433" y2= "15289" />
     <line class="fil2 str4" x1="3300" y1="15291" x2="4413" y2= "15438" />
     <line class="fil2 str4" x1="3651" y1="15486" x2="4457" y2= "15592" />
     <line class="fil2 str4" x1="3966" y1="15674" x2="4483" y2= "15742" />
     <line class="fil2 str4" x1="4209" y1="15843" x2="4545" y2= "15887" />
     <line class="fil2 str4" x1="4400" y1="16021" x2="4560" y2= "16042" />
     <line class="fil2 str4" x1="4359" y1="16200" x2="4587" y2= "16230" />
     <line class="fil2 str4" x1="4171" y1="16293" x2="4629" y2= "16354" />
     <line class="fil2 str4" x1="3980" y1="16345" x2="4619" y2= "16429" />
     <polygon class="fil4 str2" points="3528,16417 4647,16564 "/>
     <polygon class="fil4 str2" points="3622,16652 4715,16796 "/>
     <line class="fil2 str4" x1="4228" y1="16845" x2="4753" y2= "16914" />
     <line class="fil2 str4" x1="4106" y1="16607" x2="4729" y2= "16689" />
     <line class="fil2 str4" x1="1640" y1="14340" x2="4296" y2= "14689" />
     <line class="fil2 str4" x1="1897" y1="14234" x2="4314" y2= "14552" />
     <line class="fil2 str4" x1="1870" y1="14110" x2="4286" y2= "14428" />
    </g>
   </g>
   <path class="fil4 str2" d="M19852 8230l1 1 42 -75 -129 -84 16 -34 -41 -29 22 -39 -78 -51 17 -35 -1 0 279 -522 33 -10 47 -83 30 -44 76 -2c0,0 20,-35 23,-41 3,-5 -16,-39 -43,-66 -28,-27 -50,-24 -64,-35 -13,-12 -37,-52 -57,-78 -20,-26 18,-85 -12,-101 -29,-16 -42,-39 -57,-85 -16,-47 -23,-47 -50,-74 -28,-27 -53,-60 -69,-103 -17,-43 -45,-29 -45,-52 0,-22 16,-73 16,-73 0,0 -235,-121 -242,-136 -8,-15 47,-16 47,-16 0,0 -59,-37 -68,-50 -10,-13 -86,-33 -123,-31 -38,1 -33,-11 -59,-18 -26,-7 -9,-32 -4,-44 5,-12 -30,-51 -18,-65 12,-14 -64,-42 -85,-46 -21,-4 -57,-39 -86,-48 -29,-9 -31,1 -51,24l-12 21 84 20 -154 -36 -258 -60 -23 40 9 32c0,0 -35,-19 -64,-21 -30,-1 -74,-11 -81,-15 -7,-4 -3,-24 -36,-20 -32,4 -115,-23 -124,-28 -8,-5 -17,31 -42,21 -25,-10 -107,-26 -125,-32 -19,-7 -62,-31 -86,-30 -24,2 -56,18 -84,2 -29,-16 -46,-6 -63,-16 -17,-10 -33,-15 -40,-23 -7,-7 -45,-48 -45,-48l-151 -35 -25 12 -28 -19 -81 -16 -38 -13 -100 -11 -16 29 43 24c0,0 1,38 -12,35 -13,-4 -56,-16 -56,-16 0,0 -18,49 -36,45l0 0c-18,-4 -43,-60 -75,-42 -32,18 -30,0 -61,-13 -30,-13 -91,1 -112,-22 -21,-23 -33,-22 -50,-26 -17,-4 -21,-17 -26,-35 -5,-18 -26,-41 -59,-56 -33,-15 -87,-26 -106,-33 -19,-7 -52,-15 -80,-27 -28,-11 -97,-35 -100,-17 -2,17 27,19 30,47 3,28 -27,75 -27,75l-34 61 9 2 5 26 -235 371 -18 -8 -202 23 -174 310 3572 2008 174 -310 -54 -31zm-254 -420l0 0 278 -518 13 41 -290 477 -1 0zm-1166 -1503l0 0 53 1 26 -47 -170 -41 4 34 -351 586 -92 -39 45 19 296 -548 23 -13 32 0 25 -44 209 51 9 43 -380 601 -52 -22 323 -581zm-1408 -408l0 0 5 1 0 43 -247 390 -20 -8 245 -394 20 -2 -3 -30zm70 70l0 0c0,0 29,-9 30,-11 1,-1 2,-19 3,-34l0 0 2 25 -260 421 -15 -7 240 -394zm96 24l0 0 40 -17 -271 431 -15 -6 246 -408zm105 19l0 0 29 -9 21 -26 -284 472 -17 -6 251 -431zm106 25l0 0 43 -19 9 -15 -291 489 -22 -10 261 -445zm120 39l0 0c1,-7 27,-14 27,-14l13 1 9 -16 8 10 -306 481 -12 -5c40,-69 261,-450 261,-457zm134 25l0 0c0,0 11,-7 21,-5 7,1 18,-12 24,-21l7 15 -298 505 -27 -11 273 -483zm134 41l0 0 17 -17 15 8 20 -35 0 0 5 33 -313 516 -24 -10 280 -495zm136 38l0 0c5,-3 33,-16 33,-16l14 7 20 -36 0 0 12 29 -332 541 -28 -11c43,-79 276,-511 281,-514zm155 40l0 0 18 -9 30 4 23 -41 14 3 4 33 -339 561 -43 -18 293 -533zm545 154l0 0 24 -19 36 -10 28 -35 31 8 -10 28 12 33 -387 613 -62 -26 328 -592zm222 54l0 0 51 -24 25 -18 3 -24 9 2 -12 22 -3 6 14 22 -394 654 -46 -19 353 -621zm196 48l0 0 44 -15 10 -17 -17 53 24 34 -391 640 -38 -28 368 -667zm155 125l0 0c0,0 19,-21 26,-13 7,7 19,2 19,2l22 20 -1 0 -30 55 27 49 -365 589 -56 -40 358 -662zm156 165l0 0 43 -24 60 59 -45 5 -11 9 13 8 -5 38 -348 561 -45 -33 338 -623zm148 155l0 0 35 -12 21 12 7 -13 24 23 -20 20 -11 10 13 7 -4 38 -346 532 -40 -29 321 -588zm132 131l0 0 35 -12 21 11 7 -12 17 17 -19 19 -11 9 13 8 -4 38 -326 513 -37 -26 304 -565zm126 124l0 0 35 -13 6 4 -10 18 22 23 -4 39 -322 482 -15 -10 288 -543zm-2848 -1247l0 0 27 -34 1 11 -247 390 -20 -9 239 -358z"/>
   <path class="fil4 str2" d="M17791 2858c37,-136 -16,-275 -123,-356 2,-4 4,-9 5,-13l93 -353c14,-51 -5,-103 -45,-134l490 -1989 -29 -8 -559 1971c-49,7 -92,43 -105,94l-94 353c-1,4 -2,9 -3,14 -132,17 -247,112 -283,248 -38,145 23,291 142,369l-1132 3834 424 113 914 -3892c141,-9 267,-107 305,-251z"/>
   <path class="fil4 str2" d="M23665 11649l49 254 -150 29 52 273 -149 28 -181 35 -13 2 -856 164 96 506 857 -164 59 311c-51,-73 -133,-114 -216,-98l-173 33c-81,16 -142,81 -164,165l0 -4 -83 16 46 239 82 -16 0 -3c51,69 131,108 213,92l172 -33c84,-16 145,-84 165,-171l61 317 -856 164 96 506 857 -164 193 -37 1 3 150 -29 51 270 150 -28 48 253 216 -582 -142 -742 -74 -385 -142 -742 -415 -462zm-993 1142l0 0 -179 34 -56 -294 179 -34 56 294zm261 1362l0 0 -179 34 -56 -293 179 -35 56 294zm1018 -199l0 0 -150 28 -54 -282 150 -28 54 282zm-76 -396l0 0 -149 29 -163 -849 150 -29 162 849zm-184 -962l0 0 -150 28 -53 -277 150 -29 53 278z"/>
   <g>
    <path class="fil4 str2" d="M19624 24162l111 -85 157 204 787 -607 42 53 110 -85 69 89 -26 21 -47 -61 -20 15 64 82 19 -15 20 25 16 22 22 28 -19 15 60 79 40 -30 -31 -40 23 -17 -53 -68 60 -46 -36 -47 -16 -21 -69 -89 50 -39 30 39 -14 11 74 96 6 -5 35 46 71 -55 34 45 -14 11 50 66 27 -20 -15 -20 19 -15 35 46 23 -17 48 62c-15,16 -17,42 -3,60 14,18 39,22 58,12l3 2 -13 116 37 -84 13 17 12 -10 -14 -18 95 -15 -120 -18 0 -1c13,-16 15,-40 1,-57 -13,-17 -37,-22 -56,-13l-48 -63 -5 -7 -31 -39 13 -9 30 39 16 -13 -30 -39 -19 -24 -67 -87 12 -9 6 8 13 -10 61 79 36 -28 -61 -79 15 -11 -53 -69 -8 -10 -39 -51 -25 19 39 51 -5 4 -69 -90 54 -42 77 100 9 11 36 47 57 -44 52 68 40 -31 17 22 43 -33 -69 -90 -36 27 -7 -8 -7 5 -29 -37 21 -17 -63 -82 -29 22 55 71 -32 25 -77 -100 179 -138 -41 -54 783 -604 -157 -204 89 -69 -111 -63 -50 39 -88 -115 -56 -71 -800 -1087 -154 119 801 1086 -281 217 -800 -1017 -154 119 800 1016 -280 217 -731 -947 -154 119 731 947 -281 216 -730 -947 -154 119 730 947 -280 216 -731 -947 -153 119 730 947 -281 216 -730 -947 -154 119 730 947 56 71 88 115 -47 36 33 123zm1323 -467l0 0 -16 12 -69 -89 16 -12 69 89z"/>
    <polygon class="fil4 str2" points="21161,23810 21197,23782 21136,23703 21100,23731 "/>
   </g>
   <path class="fil4 str2" d="M9347 7199l-423 268 -95 -150 -314 199c-20,-17 -42,-5 -42,-5 0,0 -154,-229 -154,-237 1,-9 17,-43 0,-71 -17,-27 -53,-19 -53,-19 0,0 -14,-12 -44,-23 -31,-11 -112,-1 -112,-1l-73 -101c0,0 0,0 9,-23 9,-23 0,-38 -36,-56 -35,-19 -60,-21 -60,-21 0,0 0,0 -6,-14 -5,-14 -20,-28 -59,-30 -39,-1 -57,-2 -57,-2 0,0 -85,-119 -239,-174 -155,-54 -253,-24 -253,-24 0,0 5,-24 -10,-38 -15,-14 -89,12 -89,12 0,0 1,-12 -1,-35 -1,-22 -41,-8 -41,-8 0,0 -69,-100 -65,-126 4,-26 0,-47 -27,-62 -11,-6 -25,-6 -40,-3 -1,-1 -1,-2 -3,-2 -33,-15 -48,-11 -64,-18 -17,-8 -34,-40 -34,-40 0,0 12,-17 -7,-29 -19,-11 -29,5 -38,-14 -8,-18 16,-21 -1,-40 -18,-18 -7,-28 -25,-48 -19,-21 -49,-26 -55,-39 -5,-14 -5,-36 -18,-30 -28,13 -15,18 -17,34 -1,16 15,64 32,92 17,27 47,14 48,34 1,20 4,12 1,43 -4,32 22,36 22,36l15 40c0,0 -37,50 -10,68 2,2 4,3 7,4 -12,14 -20,28 -19,42 2,31 18,44 44,51 25,8 86,113 86,113 0,0 -29,30 -10,41 19,12 31,16 31,16 0,0 -56,56 -49,75 6,19 30,25 30,25 0,0 -69,76 -86,239 -17,163 55,291 55,291 0,0 -7,16 -23,52 -15,36 -8,55 2,67 10,11 10,11 10,11 0,0 -9,23 -7,63 1,40 11,54 35,56 25,2 25,2 25,2l60 109c0,0 -44,70 -47,102 -3,32 2,50 2,50 0,0 -22,29 -5,56 17,27 55,26 63,30 8,4 149,240 149,240 0,0 -21,16 -13,41l-333 210 95 150 -850 537 726 1147 2422 -2287 -40 -63 424 -268 -346 -545z"/>
   <polygon class="fil4 str2" points="7314,9530 7701,9285 5697,6299 5355,6006 5453,6454 "/>
   <path class="fil5 str5" d="M12081 24233c-14,7 -13,22 -1,31 15,12 21,656 21,656 0,0 -34,90 -8,101l5 87 -47 72 -58 10 764 678 690 -96 646 178 99 -203c0,0 471,-89 548,-202 76,-114 -12,-182 -12,-182 0,0 94,-1001 94,-1008 0,-8 -165,-101 -311,-116 -146,-14 -233,56 -233,56l-298 -135 -1980 -76 81 149zm1713 1043l0 0c14,-10 10,-58 10,-58l35 -944c0,0 -22,-33 -21,-54 0,-21 19,-16 78,-14 58,1 99,3 103,12 10,25 -34,62 -34,62l-57 936c0,0 -2,45 -2,64 -1,19 37,16 40,31 3,16 -43,63 -43,63 -10,11 -49,-13 -68,-17 -19,-4 -77,-4 -92,-14 -15,-10 38,-56 51,-67zm-319 -1066l0 0c23,-10 106,-7 143,4 38,11 -1,53 -1,53l-45 887c0,0 -6,10 -1,30 4,20 7,73 -3,98 0,0 -33,4 -66,-2 -32,-6 -47,-22 -44,-34 3,-13 10,-90 10,-90l25 -888c0,0 -41,-49 -18,-58zm-251 -8l0 0c85,2 93,-3 100,18 7,21 -19,47 -19,47 0,0 -41,827 -34,845 7,18 12,106 12,106 0,0 -23,11 -56,6 -41,-7 -67,-18 -64,-28 2,-10 20,-82 20,-82l13 -843c0,0 -21,-28 -21,-51 1,-22 1,-19 49,-18zm-269 10l0 0c34,1 85,-5 87,18 1,23 -12,39 -12,39l-24 781c0,0 0,8 -1,21 -2,13 13,47 25,67 13,19 -13,34 -59,37 -84,7 -79,-25 -71,-40 8,-14 16,-73 16,-73l4 -796c0,0 -17,-18 -18,-33 -2,-15 19,-22 53,-21zm-279 8l0 0c34,2 83,2 92,9 20,16 -9,34 -9,34l-4 752c0,0 15,60 18,79 3,19 -22,24 -65,34 -48,10 -64,-21 -64,-21l24 -84c0,0 10,-742 -11,-758 -20,-15 -34,-48 19,-45zm-138 62l0 0 61 6 12 602 -74 19c1,-176 1,-627 1,-627l0 0zm-176 -19l0 0 71 7c2,4 5,8 8,12 14,17 11,492 10,649l-96 24c-3,-7 -5,-12 -5,-12l1 -666c0,0 6,-6 11,-14zm-162 -18l0 0 53 6c1,8 5,16 12,19 16,8 7,670 7,670 0,0 -3,18 -6,38l-50 12c-13,-18 -24,-48 -26,-69 -3,-21 -14,-642 -13,-650 1,-4 16,-15 23,-26zm1511 1361l0 0 -908 151 -655 -552 1563 401z"/>
   <g>
    <path class="fil4 str2" d="M22139 9675c0,0 27,-175 -171,-480 -198,-304 -409,-492 -409,-492l-64 61 -258 -271 -813 777 1176 1204 539 -799zm-176 137l0 0c11,11 -19,47 -40,76 -21,28 -91,116 -91,116l-18 -19c0,0 72,-101 87,-120 15,-20 52,-64 62,-53zm-167 154l0 0 -30 -31 103 -131c0,0 47,-57 58,-45 12,12 -7,53 -29,80 -22,26 -102,127 -102,127zm216 -309l0 0c17,23 -56,97 -56,97l-17 -41c0,0 56,-79 73,-56zm-111 20l0 0c18,17 1,44 -19,70 -19,26 -93,113 -93,113l-42 -43 92 -109c0,0 44,-49 62,-31zm173 -202l0 0 -70 87 -16 -31 71 -87 15 31zm-232 114l0 0c23,24 -4,61 -20,81 -15,20 -106,115 -106,115l-44 -47 102 -119c0,0 44,-54 68,-30zm136 -321l0 0 -53 64 -27 -36 55 -67 25 39zm-171 -244l0 0 -60 67 -41 -43 61 -67 40 43zm-756 -130l0 0 82 -164c30,-3 71,12 83,57 11,45 -104,161 -104,161l-61 -54zm204 33l0 0c35,-30 94,-42 133,-1 73,76 -4,150 -4,150l-89 84 -133 -132c0,0 58,-71 93,-101zm-478 543l0 0c0,0 165,-160 199,-178 34,-18 52,-16 74,13 23,28 46,85 -8,141 -54,55 -147,148 -147,148l-118 -124zm184 193l0 0c0,0 104,-116 142,-153 38,-38 87,-57 130,-19 42,38 24,93 -12,134 -35,41 -137,151 -137,151l-123 -113zm528 -230l0 0 -78 -82c0,0 113,-158 169,-101 56,57 -91,183 -91,183zm293 -171l0 0c46,46 -58,131 -58,131l-60 -75c0,0 71,-101 118,-56zm-182 136l0 0c0,0 40,-54 75,-17 34,37 -9,86 -9,86l-125 149 -68 -71 127 -147zm-417 465l0 0c0,0 94,-109 132,-146 39,-37 65,-43 89,-22 24,21 13,59 -23,100 -36,40 -122,139 -122,139l-76 -71zm514 -351l0 0c27,-33 52,-48 74,-24 22,24 6,64 -13,87 -19,24 -123,145 -123,145l-57 -65c0,0 92,-111 119,-143zm-397 459l0 0c0,0 81,-94 117,-135 35,-41 60,-51 86,-26 27,24 9,69 -15,96 -23,28 -116,141 -116,141l-72 -76zm108 108l0 0c0,0 91,-111 118,-138 28,-28 50,-33 64,-21 14,12 -6,51 -28,77 -22,25 -108,130 -108,130l-46 -48zm76 80l0 0c0,0 84,-106 106,-132 22,-26 51,-59 65,-39 13,19 0,48 -29,81 -29,32 -111,128 -111,128l-31 -38zm58 60l0 0c0,0 84,-104 105,-129 20,-24 46,-49 58,-38 12,11 -21,47 -36,68 -16,22 -101,127 -101,127l-26 -28zm146 -77l0 0c17,-19 43,-54 52,-44 10,10 -22,49 -36,67 -14,18 -93,119 -93,119l-18 -19c0,0 78,-105 95,-123z"/>
    <path class="fil4 str2" d="M20870 9618l172 -402 32 -30 74 -71 -2 -42 48 -46 -136 -127 141 -270c0,0 104,-99 110,-105 5,-6 29,-84 29,-84l-125 -131 97 -187 44 -42 114 -109 5 -35 -45 -47 116 -274 -10 -39 15 -67c0,0 -207,-146 -497,-240 -289,-94 -440,-53 -455,-42 -16,12 -30,44 -54,63 -24,19 -49,8 -75,-4 -27,-12 -91,75 -103,87 -12,11 -950,747 -950,747l1455 1497zm-2 -548l0 0c55,64 21,124 -14,164 -35,40 -159,164 -159,164l-152 -142c0,0 130,-130 166,-166 36,-35 103,-83 159,-20zm-413 94l0 0 -137 -144c0,0 134,-124 167,-159 33,-35 108,-72 159,-25 52,47 33,114 -14,160 -46,46 -175,168 -175,168zm443 -694l0 0c37,-32 95,-50 139,-3 43,47 41,94 -8,144 -49,50 -139,132 -139,132l-138 -142c0,0 109,-99 146,-131zm-1096 -337l0 0c-30,22 -149,117 -161,122 -12,5 -28,0 -28,0l-39 -41c0,0 109,-79 152,-114 44,-34 93,-52 105,-40 11,12 1,50 -29,73zm-65 256l0 0 -91 -73c0,0 138,-106 175,-137 38,-30 89,-45 111,-24 21,21 13,63 -21,92 -34,29 -174,142 -174,142zm126 147l0 0 -96 -93c0,0 119,-102 171,-146 52,-45 102,-38 124,-17 22,21 26,74 -19,113 -44,39 -180,143 -180,143zm173 181l0 0 -112 -116c0,0 126,-114 170,-147 43,-33 114,-52 144,-21 30,31 19,90 -35,138 -54,48 -167,146 -167,146zm1016 -748l0 0c27,-23 81,-51 129,-7 48,44 23,91 -3,116 -27,25 -125,111 -125,111l-132 -110c0,0 103,-87 131,-110zm-370 306l0 0c31,-26 85,-56 135,-5 50,50 21,96 -14,131 -36,36 -131,125 -131,125l-132 -127c0,0 112,-98 142,-124zm-407 367l0 0c40,-38 107,-58 146,-17 39,41 26,92 -21,138 -47,47 -171,164 -171,164l-125 -131c0,0 131,-116 171,-154zm584 -811l0 0c24,-22 81,-38 117,-9 36,29 31,69 0,96 -30,27 -125,106 -125,106l-125 -88c0,0 108,-83 133,-105zm-370 292l0 0c34,-29 82,-58 127,-22 45,37 21,91 -12,120 -33,30 -140,116 -140,116 0,0 -91,-79 -109,-95 0,0 99,-91 134,-119zm192 -390l0 0c28,-20 91,-45 120,-22 28,23 23,54 -11,84 -34,31 -122,96 -122,96l-115 -66c0,0 99,-71 128,-92zm-238 242l0 0c40,38 3,77 -29,104 -32,27 -119,102 -128,100 -8,-2 -94,-71 -94,-71 0,0 98,-87 129,-110 30,-22 81,-60 122,-23zm89 -319l0 0c22,-18 76,-48 108,-28 31,19 17,46 -13,77 -31,31 -115,89 -115,89l-90 -51c0,0 87,-69 110,-87zm-231 219l0 0c20,19 7,54 -22,80 -28,25 -104,79 -117,90 -13,11 -27,5 -39,-1 -12,-5 -47,-26 -56,-38 0,0 109,-94 140,-114 31,-19 73,-36 94,-17zm105 -274l0 0c15,-11 76,-48 99,-34 23,13 12,40 -14,61 -26,22 -102,78 -114,83l-87 -26c0,0 102,-73 116,-84zm-225 199l0 0c13,14 9,36 -11,53 -20,17 -117,90 -136,102 -19,11 -51,-14 -62,-21 0,0 -17,-2 -13,-13 5,-11 75,-56 120,-89 45,-33 88,-46 102,-32zm117 -229l0 0c25,-18 59,-38 92,-35 33,3 7,29 -19,51 -26,21 -107,77 -107,77l-52 -11 -14 -4c0,0 78,-62 100,-78zm-304 214l0 0c27,-23 72,-47 87,-38 14,10 7,27 -19,49 -25,23 -111,82 -127,88 -15,7 -46,2 -59,-10 0,0 90,-66 118,-89zm-245 205l0 0c22,23 -27,51 -54,74 -28,23 -160,109 -160,109l-33 -35c0,0 99,-70 126,-92 28,-23 100,-78 121,-56z"/>
   </g>
   <path class="fil6 str6" d="M15875 5733l37 -142 -4 -142 -123 -11c-6,-31 -13,-61 -18,-92 -33,-191 -63,-442 -87,-717l60 -83 7 -68 -79 -7c-42,-562 -57,-1198 -17,-1644 65,-715 68,-1135 68,-1135l60 6 7 -124 -45 -26 16 -32 3 -82 -94 -98c0,0 11,-33 5,-55 -7,-22 17,-188 17,-188 0,0 -35,-46 -34,-3 0,43 -30,238 -30,238 0,0 -41,22 -61,54 -20,33 -36,14 -53,77 -12,42 35,72 21,88 -14,16 -48,17 -48,17l-8 89 30 41c0,0 -3,386 -142,1206 -83,483 -170,1027 -294,1517l-41 -4c0,0 -59,38 -61,50 -1,13 -4,51 -4,51l57 89c-76,269 -164,516 -272,720 -3,7 -7,13 -11,20l-54 -5 -85 83c0,0 -22,153 -74,304 -244,414 -455,711 -455,711l430 69c0,0 91,-708 719,-591 628,117 571,755 571,755l387 35 173 -82c0,0 -302,-432 -474,-889zm-839 -363l0 0c0,0 37,-78 80,-228 44,-151 97,-348 97,-348l229 21c0,0 -3,77 6,211 10,134 39,385 39,385l-451 -41z"/>
   <polygon class="fil4 str2" points="14905,24361 18516,25362 19911,22142 18103,22512 "/>
   <polygon class="fil4 str2" points="14496,24334 16200,25446 17452,24009 16455,23903 "/>
   <g>
    <path class="fil4 str2" d="M3678 10064c-74,-132 -203,-355 -319,-556 -93,-161 -173,-300 -212,-369 -62,-110 -31,-186 -7,-222 40,-59 113,-92 188,-83 91,11 442,106 651,163 -78,-43 -148,-83 -178,-100 -71,-42 19,-76 -29,-113 -48,-36 -849,-352 -1087,-374 -56,-6 -102,3 -139,22 -11,-38 -35,-78 -88,-48 -90,51 -122,215 -75,259 17,16 34,27 47,35 4,39 14,78 30,114 79,176 759,1095 759,1095 44,61 118,-25 196,20 14,9 112,67 263,157zm-844 -1290l0 0 34 -58 255 150 -35 58 -254 -150z"/>
    <path class="fil4 str2" d="M3359 9191c-38,-66 -43,-133 -12,-180 29,-42 83,-61 150,-51 99,14 529,127 766,190 -5,-2 -9,-4 -11,-5 -30,-15 -84,-44 -145,-77 -111,-31 -669,-186 -783,-200 -62,-7 -123,19 -155,67 -35,51 -32,118 7,187 39,69 119,208 213,369 132,230 282,489 347,608 36,21 74,45 115,69 -45,-91 -103,-205 -162,-325 -138,-277 -294,-590 -330,-652zm-184 -216l0 0 34 -58 119 70 -34 58 -119 -70z"/>
    <path class="fil4 str2" d="M4391 9220c-119,-32 -777,-210 -899,-227 -54,-8 -95,6 -116,37 -24,36 -19,89 12,144 37,63 187,363 331,654 71,142 138,277 186,372 785,469 2236,1336 2283,1364 65,38 635,-977 556,-1033 -70,-48 -1836,-1028 -2353,-1311zm1479 1976l0 0 -22 38 -106 -62 22 -39 106 63zm-157 -93l0 0 -23 39 -106 -63 22 -38 107 62zm-170 -100l0 0 -22 39 -106 -62 22 -39 106 62zm-169 -99l0 0 -23 39 -106 -63 23 -39 106 63zm-169 -100l0 0 -23 39 -106 -62 23 -39 106 62zm-170 -99l0 0 -22 38 -106 -62 22 -39 106 63zm-169 -100l0 0 -23 39 -106 -63 23 -38 106 62zm-169 -99l0 0 -23 38 -106 -62 23 -39 106 63zm-169 -100l0 0 -23 39 -106 -63 22 -38 107 62zm-170 -99l0 0 -22 38 -107 -62 23 -39 106 63zm-169 -100l0 0 -23 39 -106 -63 23 -38 106 62zm-169 -99l0 0 -23 38 -106 -62 22 -39 107 63zm1815 948l0 0 -24 42 -109 -64 25 -42 108 64zm-161 -95l0 0 -24 42 -108 -63 24 -42 108 63zm-172 -101l0 0 -25 42 -108 -64 24 -42 109 64zm-173 -102l0 0 -25 42 -108 -64 25 -41 108 63zm-173 -101l0 0 -24 42 -109 -64 25 -42 108 64zm-172 -102l0 0 -25 42 -108 -64 24 -41 109 63zm-173 -101l0 0 -25 42 -108 -64 25 -42 108 64zm-173 -102l0 0 -24 42 -109 -64 25 -41 108 63zm-173 -101l0 0 -24 41 -108 -63 24 -42 108 64zm-172 -102l0 0 -25 42 -108 -64 24 -42 109 64zm-173 -101l0 0 -25 41 -108 -63 25 -42 108 64zm-173 -102l0 0 -24 42 -109 -64 25 -42 108 64zm1853 970l0 0 -26 45 -111 -65 27 -45 110 65zm-164 -96l0 0 -26 45 -111 -65 27 -45 110 65zm-176 -104l0 0 -26 45 -111 -65 27 -45 110 65zm-176 -103l0 0 -27 45 -110 -65 26 -45 111 65zm-176 -104l0 0 -27 45 -110 -65 26 -45 111 65zm-176 -103l0 0 -27 45 -110 -65 26 -45 111 65zm-176 -104l0 0 -27 45 -110 -65 26 -45 111 65zm-177 -103l0 0 -26 45 -110 -65 26 -45 110 65zm-176 -104l0 0 -26 45 -111 -65 27 -45 110 65zm-176 -103l0 0 -26 45 -111 -65 27 -45 110 65zm-176 -104l0 0 -26 45 -111 -65 27 -45 110 65zm-176 -104l0 0 -27 45 -110 -64 27 -45 110 64zm1890 993l0 0 -28 48 -113 -66 29 -49 112 67zm-167 -99l0 0 -28 49 -113 -67 28 -48 113 66zm-180 -105l0 0 -28 48 -113 -66 29 -48 112 66zm-179 -106l0 0 -29 48 -112 -66 28 -48 113 66zm-180 -105l0 0 -28 48 -113 -66 29 -49 112 67zm-179 -106l0 0 -29 48 -112 -66 28 -48 113 66zm-180 -105l0 0 -28 48 -113 -66 29 -49 112 67zm-179 -106l0 0 -29 48 -112 -66 28 -48 113 66zm-180 -106l0 0 -28 49 -113 -66 29 -49 112 66zm-179 -105l0 0 -29 48 -112 -66 28 -48 113 66zm-180 -106l0 0 -28 49 -113 -67 29 -48 112 66zm-179 -105l0 0 -29 48 -112 -66 28 -48 113 66zm1927 1014l0 0 -30 51 -115 -67 30 -51 115 67zm-170 -100l0 0 -31 51 -114 -67 30 -52 115 68zm-183 -108l0 0 -31 52 -114 -68 30 -51 115 67zm-183 -107l0 0 -30 51 -115 -67 30 -52 115 68zm-183 -108l0 0 -30 52 -115 -68 30 -51 115 67zm-183 -107l0 0 -30 51 -115 -67 30 -52 115 68zm-183 -108l0 0 -30 51 -115 -67 30 -51 115 67zm-183 -108l0 0 -30 52 -115 -68 30 -51 115 67zm-183 -107l0 0 -30 51 -115 -67 30 -52 115 68zm-183 -108l0 0 -30 52 -115 -68 30 -51 115 67zm-183 -107l0 0 -30 51 -115 -67 31 -52 114 68zm-183 -108l0 0 -30 52 -115 -68 31 -51 114 67zm1965 1036l0 0 -32 55 -117 -69 32 -54 117 68zm-174 -102l0 0 -32 55 -117 -69 33 -55 116 69zm-186 -109l0 0 -32 54 -117 -68 32 -55 117 69zm-186 -110l0 0 -32 55 -117 -69 32 -55 117 69zm-187 -110l0 0 -32 55 -117 -69 32 -54 117 68zm-186 -109l0 0 -32 55 -117 -69 32 -55 117 69zm-186 -110l0 0 -32 55 -117 -69 32 -54 117 68zm-187 -109l0 0 -32 54 -117 -68 32 -55 117 69zm-186 -110l0 0 -32 55 -117 -69 32 -54 117 68zm-186 -109l0 0 -33 54 -116 -68 32 -55 117 69zm-187 -110l0 0 -32 55 -117 -69 32 -55 117 69zm-186 -109l0 0 -32 54 -117 -68 32 -55 117 69zm2002 1058l0 0 -34 57 -119 -69 34 -58 119 70zm-177 -104l0 0 -34 57 -119 -69 34 -58 119 70zm-190 -112l0 0 -34 58 -119 -70 34 -58 119 70zm-189 -112l0 0 -34 58 -119 -70 34 -58 119 70zm-190 -111l0 0 -34 58 -119 -70 34 -58 119 70zm-190 -112l0 0 -34 58 -119 -70 34 -58 119 70zm-190 -111l0 0 -34 58 -119 -70 34 -58 119 70zm-189 -112l0 0 -34 58 -119 -70 34 -58 119 70zm-190 -111l0 0 -34 58 -119 -70 34 -58 119 70zm-190 -112l0 0 -34 58 -119 -70 34 -58 119 70zm-190 -111l0 0 -34 57 -119 -70 34 -57 119 70zm-189 -112l0 0 -34 58 -119 -70 34 -58 119 70z"/>
   </g>
   <path class="fil4 str2" d="M6481 9085l-614 -652 -68 64 -1433 -1523 -49 47 -364 -387 -55 51c-11,-8 -23,-15 -36,-21l-67 -71c-16,-17 -35,-31 -56,-40l-54 -57c-26,-28 -59,-44 -94,-50l-58 -61c-29,-32 -71,-45 -110,-40l-72 -75c-14,-16 -33,-24 -53,-24 -33,-34 -76,-68 -110,-86 -8,-11 -18,-23 -31,-36 -48,-51 -114,-106 -143,-115 -24,-27 -56,-62 -97,-105 -132,-140 -305,-318 -309,-314 -4,3 163,187 295,327 41,44 73,78 99,104 7,29 58,99 106,149 12,14 24,25 34,34 16,35 47,79 79,114 -1,20 6,40 21,55l71 76c-8,39 3,81 32,113l59 61c3,35 17,69 43,97l54 57c8,21 20,41 37,58l67 72c5,12 11,25 18,37l-53 50 363 388 -49 46 1433 1522 -68 64 615 653 -105 98 828 880 828 -779 -829 -880 -105 99zm-2792 -2245l0 0 -8 41 -60 -40 68 -1zm-104 -66l0 0 -60 -69 75 21 -15 48zm94 -127l0 0 -21 -79 67 68 -46 11zm112 21l0 0 45 67 -42 4 -3 -71zm88 22l0 0 22 60 -43 -10 21 -50zm-81 -53l0 0 -45 -4 -1 -50 46 54zm-168 -152l0 0 44 46 -39 2 -5 -48zm-127 -92l0 0 40 44 -26 -2 -14 -42zm49 82l0 0 63 61 -41 11 -22 -72zm-54 -38l0 0 -33 4 -30 -69 63 65zm207 249l0 0 66 62 -40 26 -26 -88zm-260 -232l0 0 -26 25 -47 -76 73 51zm32 58l0 0 79 46 -38 36 -41 -82zm90 100l0 0 86 51 -40 39 -46 -90zm155 175l0 0 -28 38 -62 -70 90 32zm-377 -322l0 0 64 32 -11 32 -53 -64zm163 144l0 0 -18 45 -56 -70 74 25zm-156 -79l0 0 45 22 -5 25 -40 -47zm135 148l0 0 -3 32 -41 -41 44 9zm54 117l0 0 40 4c0,0 2,40 1,41l-41 -45zm145 115l0 0 6 28 -50 -11 44 -17z"/>
   <g>
    <polygon class="fil4 str2" points="10867,24248 10787,24222 10744,24355 9553,28007 9608,27969 9632,28034 "/>
    <polygon class="fil4 str2" points="10703,24361 10627,24336 10567,24522 9442,27971 9499,27933 9518,27994 "/>
    <polygon class="fil4 str2" points="10526,24528 10448,24502 9330,27933 9388,27891 9408,27957 "/>
    <polygon class="fil4 str2" points="10993,24623 11042,24472 10968,24447 9782,28083 9835,28050 9857,28107 "/>
    <polygon class="fil4 str2" points="11115,24683 11022,24653 9891,28121 9950,28087 9983,28153 "/>
    <path class="fil4 str2" d="M10429 23956l-1242 3808 105 167 1127 -3458c3,-9 13,-15 23,-12l95 31 61 -185c3,-10 13,-15 23,-12l93 31 43 -133c3,-10 14,-15 24,-12l230 75c9,3 15,14 11,23l-43 133 92 30c10,3 15,14 12,23l-49 152 110 36c9,3 15,14 12,24l-1137 3487 152 -79 878 -2693 395 129 98 -299 164 53 466 -1431 -2452 -800 -200 616 909 296z"/>
    <polygon class="fil4 str2" points="10938,24418 10981,24286 10902,24260 9667,28047 9723,28013 9747,28072 "/>
   </g>
   <g>
    <polygon class="fil5 str5" points="4416,11441 4064,12218 3800,12098 4152,11322 "/>
    <polygon class="fil5 str5" points="5011,11614 4475,11372 4060,12287 4577,12522 4596,12530 4723,12705 4928,12798 5429,11692 5224,11599 "/>
    <polygon class="fil4 str2" points="5647,11755 5108,12945 4831,12820 5371,11630 "/>
    <polygon class="fil5 str5" points="4559,11333 4071,12409 3915,12339 4403,11262 "/>
    <polygon class="fil4 str2" points="5857,11555 5096,13235 4898,13145 5659,11465 "/>
    <polygon class="fil4 str2" points="6300,11222 5236,13571 4960,13446 6024,11097 "/>
    <path class="fil5 str5" d="M1670 11039c17,-58 -1,-69 -35,-95 -34,-26 -68,9 -68,9 0,0 36,-1 43,26 5,22 1,19 -31,18 -31,-1 -41,20 -41,20 0,0 30,12 32,32 4,50 77,72 100,-10z"/>
    <path class="fil5 str5" d="M3290 10995c-36,-55 -147,-99 -159,-129 -11,-29 -69,-35 -100,-45 -30,-10 -83,-73 -83,-73l-94 57 57 71c0,0 -126,4 -189,18 -63,14 -92,93 -124,78 -33,-14 -113,-48 -149,-71 -9,-5 -20,-11 -34,-15l14 -121 -46 115c-7,-1 -14,-1 -21,-1l-33 -128 4 132c-12,3 -24,8 -36,16l-83 -65 56 91c-6,9 -11,18 -14,27l-133 11 129 21c1,10 3,20 7,29 -50,31 -135,84 -136,92 -1,7 97,-44 148,-71 4,7 10,12 14,17l-46 103c-48,-4 -127,-21 -163,-17 -52,5 -106,-31 -154,-35 -48,-4 -78,22 -101,4 -24,-18 -4,-55 -29,-77 -26,-22 -80,-36 -90,-12 -11,23 -9,29 -32,22 -22,-8 -38,-38 -64,13 -27,51 35,30 51,47 15,17 -24,66 5,69 30,4 77,8 113,-1 36,-9 50,40 84,34 35,-5 78,25 95,22 17,-3 22,-29 59,-16 36,13 100,28 161,43 60,15 105,3 132,30 27,26 93,116 145,95 52,-20 -22,-46 52,-20 73,26 11,-41 80,-6 70,35 103,0 135,39 32,40 29,85 119,122 89,37 54,-19 153,44 99,63 138,24 208,59 69,35 179,74 272,95 94,21 202,31 256,77 54,46 66,97 50,125 -16,28 20,41 20,41l-17 138 80 36 352 -776 -73 -34c0,0 -67,101 -133,89 -65,-12 -193,-66 -325,-144 -132,-77 -374,-144 -412,-154 -38,-11 57,-56 22,-111zm-773 50l0 0c-19,44 -58,46 -58,46 54,-37 27,-90 15,-109 -12,-20 61,20 43,63zm-164 -17l0 0c1,-23 61,16 61,16 0,0 12,-9 14,-14 1,-6 -38,-26 -44,-26 -6,-1 -21,-11 -8,-26 13,-15 35,-30 42,-20 7,9 -20,42 -20,42 0,0 26,14 39,18 13,4 5,33 -7,39 -11,6 -53,-24 -53,-24 0,0 7,19 -6,37 -13,17 -18,-23 -18,-42zm254 20l0 0c0,0 22,25 48,107 26,82 58,173 58,173 0,0 -68,-74 -87,-126 -19,-51 -19,-154 -19,-154zm-265 28l0 0c30,8 62,16 69,35 11,30 19,19 -14,29 -19,6 -56,1 -85,0l30 -64zm-37 -13l0 0c2,2 5,3 8,4l-12 73c-14,1 -24,3 -25,9 0,6 -12,7 -29,6l58 -92zm114 234l0 0c-1,41 -63,5 -63,5 0,0 21,-8 21,-23 0,-16 -78,-109 -78,-109 0,0 120,87 120,127zm407 86l0 0c49,105 72,118 72,118 0,0 -49,6 -75,-40 -46,-79 -161,-374 -162,-401 0,0 116,219 165,323zm797 98l0 0c3,10 20,244 20,244l-45 -214c0,0 -63,28 -73,30 -10,3 -358,-176 -358,-176l352 159c0,0 102,-53 104,-43zm-776 -361l0 0c5,-28 45,-56 88,-59 44,-3 167,9 167,9l-255 50zm296 -63l0 0 40 -23 -98 -123c0,0 43,0 90,22 47,21 57,48 25,57 -33,8 2,35 10,43 7,9 66,12 38,34 -29,21 -105,-10 -105,-10z"/>
   </g>
   <path class="fil4 str2" d="M5870 20536l-570 560 24 43 -77 74 -50 -43 -836 827 279 494 233 223 2464 -2353 -46 -47 -2438 2311 -95 -99 2432 -2314 -125 -127 -105 101 -5 89 -74 96 -120 -133 -510 494 103 124 -115 112 -117 -112 -574 540 95 124 -99 112 -120 -125c0,0 -515,499 -527,511l-67 -77 549 -506 -99 -137 103 -108 107 137 575 -548 -100 -128 103 -108 113 108 505 -490 -66 -94 238 -193 -60 -62 -112 108 -54 -22 -82 96 -25 -34 -552 485 37 55 -86 83 -54 -47zm-946 1605l0 0 -124 129 -82 -145 107 -112 99 128zm-222 -341l0 0 58 77 -151 153 161 277 -69 92 -222 -384 223 -215z"/>
   <path class="fil4 str2" d="M3498 20860c18,38 90,7 90,7 0,0 141,320 265,404l2663 -1683 -22 -37 -2432 1515c-37,-47 -78,-78 -38,-103 37,-24 2067,-1299 2408,-1513l-163 -264 -2608 1641 -27 -54 2597 -1648 -87 -142 -2693 1681c0,0 30,158 47,196z"/>
   <path class="fil3 str7" d="M2896 19551l-106 313 -20 365 414 -85 1596 -888c0,0 1208,-583 1228,-609 20,-25 -413,-768 -413,-768l-2699 1672zm2796 -1216l0 0c0,0 -2059,1336 -2085,1351 -26,15 -423,340 -423,340 0,0 -245,124 -276,143l-60 -20 61 -342 2783 -1472z"/>
   <path class="fil4 str2" d="M2388 18419l-32 -59 3223 -1045 -110 -354c0,0 -810,287 -1021,388 -212,102 -715,406 -715,406l-1431 460c0,0 -33,111 16,221 49,109 135,238 135,238 51,-17 1335,-428 1335,-428 0,0 523,-16 1044,-132 521,-115 916,-252 916,-252l-146 -473 -3214 1030zm1157 -131l0 0 -901 279 -234 -80c0,0 469,-161 584,-193 115,-32 551,-6 551,-6z"/>
   <path class="fil3 str7" d="M23369 22850c3,2 117,78 126,83 22,11 48,-15 71,-18 23,-2 70,-9 75,-5 5,3 16,11 23,4 7,-6 18,-3 35,4 16,7 31,-18 31,-18 0,0 3,14 5,23 3,9 12,13 27,16 14,4 26,3 22,12 -4,9 13,21 27,35 13,15 31,25 40,20 9,-6 28,-3 43,0 14,3 30,-3 42,6 13,9 32,19 41,25 10,7 19,23 36,30 16,7 44,18 46,31 2,14 16,18 23,19 6,0 23,2 33,19 10,16 43,16 43,16l46 38 8 -8 -16 -21c0,0 -8,-25 9,-15 17,9 43,-5 43,-5 0,0 67,39 75,38 8,-2 47,-3 47,-3l403 282 22 2 148 104 18 -2 40 26 184 123 7 -12 -176 -128 -37 -31 -10 -19 -151 -102c0,0 -4,-14 -8,-19 -3,-5 -408,-292 -411,-297 -4,-5 -6,-28 -13,-42 -6,-14 -38,-42 -55,-55 -18,-12 -12,-20 -12,-20l38 23 5 -11 -29 -21 -10 -16 6 -12 21 10 8 -14 -50 -33c0,0 -20,-5 -18,-17 2,-13 -27,-5 -30,-12 -2,-6 -18,-34 -39,-40 -22,-6 -34,4 -32,-2 2,-6 -6,-25 -8,-39 -2,-13 -30,-21 -30,-21 0,0 -59,-28 -61,-43 -1,-15 -21,-46 -30,-53 -10,-7 -39,8 -49,12 -11,5 -11,-8 -3,-19 7,-11 -22,-36 -25,-41 -4,-5 -20,-26 -29,-42 -10,-16 -50,16 -48,13 3,-3 0,-59 2,-72 2,-12 -17,-19 -12,-42 4,-23 -21,-57 -19,-72 2,-16 -2,-63 -6,-68 -3,-5 -112,-81 -120,-89 -9,-8 -23,-12 -40,-5 -17,7 -33,14 -29,1 5,-13 -10,-38 -28,-46 -38,-16 -44,18 -44,18 0,0 -44,-7 -76,-5 -32,1 -37,42 -55,59 -19,18 -100,27 -100,27 0,0 -2452,-1834 -2464,-1843l-241 337c0,0 2594,1648 2606,1661 12,14 10,83 10,92 0,10 -6,18 -12,37 -6,19 -2,46 -2,46 0,0 -17,16 -18,25 -1,8 7,16 10,26 3,9 -23,-12 -23,-12 0,0 -20,19 -21,33 0,13 44,45 54,54 9,9 15,-5 30,-9 14,-4 10,-28 16,-17 6,12 28,18 28,18 0,0 -7,40 -6,55 1,15 17,28 23,33zm233 -573l0 0c14,-19 40,-23 59,-10 19,14 24,40 10,59 -14,19 -40,23 -59,10 -19,-14 -23,-40 -10,-59zm-272 384l0 0c14,-19 40,-23 59,-9 19,13 24,40 10,59 -13,19 -40,23 -59,9 -19,-13 -23,-40 -10,-59zm93 -60l0 0c16,-22 46,-27 68,-12 22,16 27,47 11,69 -15,22 -46,27 -68,11 -22,-16 -27,-46 -11,-68zm140 -216l0 0c16,-22 47,-27 69,-12 22,16 27,47 11,69 -16,22 -46,27 -68,11 -22,-16 -28,-46 -12,-68zm-62 113l0 0c16,-22 47,-28 69,-12 22,16 27,47 11,69 -16,22 -46,27 -68,11 -22,-16 -27,-46 -12,-68z"/>
   <path class="fil6 str6" d="M6224 21715l-54 68 286 536 885 782 -47 66 197 174 -282 322 -51 9 -30 61 21 27c0,0 -28,49 -24,62 3,12 -6,29 -6,29l-122 136c0,0 -47,65 -38,111 8,46 23,74 23,74 0,0 77,28 120,6 42,-21 80,-37 96,-61 17,-25 101,-111 101,-111l43 17 29 -61 33 28c0,0 70,-65 72,-83 1,-18 177,-223 187,-234 10,-11 91,-95 91,-95l186 155 49 -35 911 790 516 213 93 27 67 -73 43 23 13 -99 666 -768 -1607 -1403c-72,86 -231,250 -252,274 -21,25 -98,31 -137,-2 -39,-34 -59,-89 -16,-139 34,-39 184,-206 247,-276l-250 -229 -939 -814 -346 -363 -453 490 -249 282 -38 45 -50 -4 16 43zm383 30l0 0 -64 -56 155 -180 64 56 -155 180zm90 460l0 0 -103 -88 28 -33 102 89 -27 32zm111 -285l0 0 150 -175 68 59 -151 174 -67 -58zm77 450l0 0 -103 -89 26 -30 103 88 -26 31zm113 -288l0 0 150 -173 69 59 -149 173 -70 -59zm76 448l0 0 -100 -86 24 -27 99 86 -23 27zm118 -284l0 0 147 -170 69 60 -146 170 -70 -60zm86 460l0 0 -106 -92 23 -27 106 91 -23 28zm104 -293l0 0 151 -175 74 63 -151 175 -74 -63zm89 465l0 0 -108 -93 27 -30 107 92 -26 31zm107 -294l0 0 145 -168 74 63 -145 169 -74 -64zm4 599l0 0 -133 -114 47 -55 133 115 -47 54zm-92 398l0 0c30,27 34,73 7,103 -26,31 -72,34 -103,8 -31,-26 -34,-72 -8,-103 27,-31 73,-34 104,-8zm62 -138l0 0 47 -55 83 72 -47 54 -83 -71zm469 133l0 0 -133 -115 49 -56 133 115 -49 56zm301 57l0 0 -114 -98 25 -29 113 98 -24 29zm99 -303l0 0 149 -173 80 69 -149 173 -80 -69zm95 479l0 0 -107 -92 32 -37 107 93 -32 36zm104 -305l0 0 151 -175 82 71 -151 175 -82 -71zm95 477l0 0 -115 -100 26 -30 116 100 -27 30zm101 -299l0 0 151 -175 79 68 -151 175 -79 -68zm93 474l0 0 -108 -93 28 -32 107 93 -27 32zm100 -305l0 0 147 -170 82 70 -147 171 -82 -71zm90 474l0 0 -106 -91 27 -32 106 91 -27 32zm104 -296l0 0 148 -172 82 71 -148 172 -82 -71zm356 310l0 0 -80 -69 154 -178 80 69 -154 178zm413 -638l0 0 80 70 -137 158 -80 -69 137 -159zm-191 219l0 0 75 65 -73 85 -76 -65 74 -85zm-87 -461l0 0 72 62 -131 153 -73 -62 132 -153zm-118 276l0 0 -76 89 -67 -59 76 -88 67 58zm-72 -448l0 0 72 62 -134 156 -72 -62 134 -156zm-186 215l0 0 69 60 -74 86 -69 -59 74 -87zm-9 -388l0 0 72 62 -133 154 -72 -62 133 -154zm-187 216l0 0 66 57 -75 87 -65 -57 74 -87zm-6 -388l0 0 69 59 -133 154 -69 -59 133 -154zm-190 214l0 0 69 59 -72 84 -69 -60 72 -83zm-3 -392l0 0 65 57 -135 157 -66 -57 136 -157zm-190 214l0 0 65 56 -74 87 -66 -57 75 -86zm-28 -413l0 0 67 58 -134 156 -67 -58 134 -156zm-404 -356l0 0 68 58 -138 161 -68 -58 138 -161zm127 808l0 0 -151 175 -74 -64 151 -175 74 64zm-196 -182l0 0 -153 178 -77 -67 153 -178 77 67zm-202 -181l0 0 -157 182 -74 -64 157 -181 74 63zm233 788l0 0 -504 -149 -217 -487 721 636zm-193 -1419l0 0 72 63 -130 151 -72 -63 130 -151zm-187 217l0 0 64 55 -73 86 -64 -56 73 -85zm-192 -163l0 0 57 50 -67 79 -58 -50 68 -79zm-6 -385l0 0 69 59 -132 152 -69 -59 132 -152zm-125 270l0 0 -70 82 -61 -53 70 -81 61 52zm-71 -433l0 0 69 59 -128 149 -69 -59 128 -149zm-189 217l0 0 62 54 -69 80 -63 -54 70 -80zm0 -377l0 0 66 56 -130 151 -66 -57 130 -150zm-187 207l0 0 61 53 -71 82 -61 -53 71 -82zm-87 -441l0 0 67 58 -128 149 -68 -58 129 -149zm-122 258l0 0 -72 84 -53 -46 72 -83 53 45z"/>
   <g>
    <path class="fil4 str2" d="M25116 9365c0,0 139,-72 157,-91 16,-17 -14,-280 -98,-459l824 -440 -27 -50 -823 439c-7,-11 -14,-22 -21,-31 -393,-543 -542,-514 -542,-514 0,0 -96,49 -127,69 -31,20 -24,-12 -50,87 -25,93 139,406 180,530l-3122 1666 153 286 3170 -1692c11,16 23,32 36,47l-3133 1672 24 45 3145 -1678c50,52 102,93 137,116 62,43 117,-2 117,-2z"/>
    <polygon class="fil4 str2" points="21565,10644 21535,10588 24660,8920 24690,8976 "/>
    <g>
     <g>
      <polygon class="fil4 str2" points="24512,8314 24498,8289 24591,8239 24605,8264 "/>
      <polygon class="fil4 str2" points="24567,8348 24554,8323 24647,8273 24660,8298 "/>
      <polygon class="fil4 str2" points="24621,8388 24608,8363 24701,8313 24714,8338 "/>
      <polygon class="fil4 str2" points="24674,8433 24660,8408 24753,8359 24767,8383 "/>
      <polygon class="fil4 str2" points="24725,8483 24711,8458 24804,8408 24818,8433 "/>
      <polygon class="fil4 str2" points="24774,8536 24760,8511 24853,8461 24867,8486 "/>
      <polygon class="fil4 str2" points="24821,8593 24807,8568 24900,8518 24914,8543 "/>
      <polygon class="fil4 str2" points="24865,8652 24852,8627 24945,8578 24958,8602 "/>
      <polygon class="fil4 str2" points="24908,8714 24894,8689 24987,8639 25001,8664 "/>
      <polygon class="fil4 str2" points="24947,8777 24934,8752 25027,8702 25040,8727 "/>
      <polygon class="fil4 str2" points="24984,8841 24971,8816 25064,8766 25077,8791 "/>
      <polygon class="fil4 str2" points="25018,8905 25004,8880 25097,8831 25111,8855 "/>
      <polygon class="fil4 str2" points="25048,8969 25035,8944 25128,8895 25141,8920 "/>
      <polygon class="fil4 str2" points="25075,9032 25061,9008 25154,8958 25168,8983 "/>
      <polygon class="fil4 str2" points="25098,9094 25084,9069 25177,9020 25191,9045 "/>
      <polygon class="fil4 str2" points="25117,9154 25103,9129 25196,9080 25210,9104 "/>
      <polygon class="fil4 str2" points="25132,9211 25118,9186 25211,9137 25225,9162 "/>
      <polygon class="fil4 str2" points="25142,9265 25129,9240 25222,9191 25235,9215 "/>
      <polygon class="fil4 str2" points="25148,9315 25135,9290 25228,9241 25241,9266 "/>
     </g>
    </g>
   </g>
   <g>
    <path class="fil4 str2" d="M24350 16104l-825 375 -108 510 359 507c0,0 69,-195 76,-320 8,-124 4,-233 4,-233l28 -54c0,0 89,-75 253,-325 164,-251 213,-460 213,-460z"/>
    <path class="fil4 str2" d="M23209 17410l1065 91c0,0 -58,419 -306,711 -248,291 -488,326 -488,326 0,0 493,279 550,845 58,566 -21,808 -21,808l-1600 -925 800 -1856z"/>
    <path class="fil4 str2" d="M22993 20499c0,0 49,-67 86,-137l291 126c0,0 101,-151 96,-317 -6,-165 -211,-305 -211,-305l-201 364c-62,-3 -158,19 -209,31 -85,20 -262,607 -262,607l254 110c0,0 127,-282 156,-479z"/>
    <path class="fil4 str2" d="M22583 21318c0,0 -132,-261 -228,-395 -96,-133 -312,-389 -312,-389l387 -625c0,0 404,317 340,769 -65,452 -187,640 -187,640z"/>
    <path class="fil4 str2" d="M22241 20075c0,0 402,295 563,424 161,128 319,326 319,326 0,0 191,-622 18,-1008 -173,-386 -640,-347 -640,-347l-260 605z"/>
    <path class="fil4 str2" d="M22895 18138l914 -66c0,0 -33,266 -194,509 -161,242 -364,394 -364,394 0,0 378,403 446,754 68,352 62,829 62,829l-1436 -1094 572 -1326z"/>
    <polygon class="fil4 str2" points="22342,19472 21807,20669 22007,20755 22682,19559 "/>
    <path class="fil4 str2" d="M22876 15514c441,372 546,611 649,965 103,353 -558,1754 -558,1754 0,0 -785,2040 -1060,2325 -276,285 -1428,601 -1428,601l2397 -5645z"/>
   </g>
   <path class="fil5 str5" d="M24500 11937c0,0 -40,-133 -62,-248 -22,-116 58,-226 58,-226l-2 -12 0 0 46 37 88 -33 -52 -180 108 -21 54 73 -25 46 29 2 -12 55 33 -4 -22 72 38 -5 15 -68c0,0 78,237 94,266 16,28 138,102 138,102l-2 -10c26,11 49,10 33,-45 -31,-103 15,-290 55,-428 39,-134 182,-355 192,-371l49 -10 -9 -44c4,1 7,0 11,0 23,-5 39,-27 41,-53l5 -1c11,24 31,38 51,34 20,-4 34,-25 34,-52l23 -5 5 26 27 -6 -5 -26 28 -5 5 26 27 -6 -5 -26 28 -6 5 27 28 -6 -6 -27 28 -6 5 28 28 -6 -6 -27 28 -6 5 28 28 -6 -6 -28 28 -6 6 29 27 -6 -6 -29 28 -6 6 30 27 -6 -6 -29 28 -6 6 30 28 -6 -6 -30 27 -6 6 31 28 -6 -6 -31 232 -49c5,8 15,12 25,10l4 0c10,-2 18,-11 20,-20l39 -9c6,9 16,14 26,12 11,-2 19,-11 20,-21l44 -10 -3 -15 -44 9c-5,-9 -16,-14 -26,-12 -11,2 -18,10 -20,20l-40 7c-5,-8 -16,-12 -26,-10l-3 0c-11,2 -18,10 -20,20l-233 43 -7 -31 -27 5 6 31 -28 5 -6 -30 -27 5 6 30 -28 5 -6 -29 -28 5 6 30 -27 5 -6 -29 -28 5 6 29 -28 5 -5 -29 -28 6 6 28 -28 5 -6 -28 -27 6 5 27 -27 5 -6 -27 -27 6 5 27 -28 5 -5 -27 -28 6 6 26 -28 5 -5 -26 -28 6 5 25 -22 4c-11,-24 -32,-39 -52,-35 -20,4 -33,25 -34,51l-5 1c-12,-23 -35,-37 -58,-33 -4,1 -7,2 -10,4l-9 -44 -67 13 -15 -19c0,0 -258,-168 -344,-313 -86,-144 -208,-235 -202,-335 5,-80 -48,21 -55,105l0 0 -23 -71 -32 6 37 183 1 109 -27 -54 -35 7 60 105 -19 23 -43 -73 -28 18 63 108 -22 98 -47 10 -53 10 -47 -155 -62 12 -7 -32 -32 11 9 46 -27 -19c0,0 -88,-19 -129,-156 -41,-138 -63,-249 -63,-249 0,0 -40,41 -54,116l-33 -39 -28 -11 -23 16c0,0 31,195 40,201 9,6 11,72 11,72l-39 -56 -23 18 53 91 -29 29 -33 -78 -23 15 53 100c0,0 -19,98 -13,104 7,7 -7,41 -7,41l-100 -14c0,0 -31,-171 -34,-171 -2,1 -103,18 -150,26 -10,-8 -87,-73 -124,-188 -40,-122 -63,-191 -63,-191 0,0 -97,202 -38,316 13,25 27,45 40,64l-276 54 -175 -54 -5 46 -1262 233 594 1377 1373 -276c0,0 0,0 0,0l94 -18 -25 -126c23,-166 29,-250 30,-280l176 83 -43 -190 120 -10 29 54 -3 65 31 8 -22 51 31 -6 -12 62 37 11 7 -93 23 35 -7 95 32 -6 -1 -31 17 72 37 133 71 -14c50,121 144,94 144,94z"/>
   <path class="fil6 str6" d="M26054 15898l-14 -188c0,-5 -2,-11 -3,-16l1130 -84 -3 -41 634 -47 98 -95 -811 74c-52,-79 -624,-432 -978,-647 25,-5 43,-27 41,-53l-24 -325c-2,-28 -27,-49 -55,-47 -29,2 -50,27 -48,55l24 325c1,3 2,6 3,10 -125,-76 -212,-128 -220,-132 -27,-18 -499,-204 -499,-204 0,0 -85,2 -118,-2 -34,-5 -97,-61 -97,-61 0,0 -73,14 -129,7 -55,-7 -112,-66 -112,-66 0,0 -71,21 -110,17 -40,-4 -96,-48 -96,-48 0,0 -83,29 -123,23 -40,-6 -114,-60 -114,-60 0,0 -89,35 -131,32 -42,-3 -106,-43 -106,-43 0,0 -66,32 -107,43 -41,12 -127,-36 -127,-36 0,0 -55,28 -96,42 -40,14 -131,-25 -131,-25 0,0 -46,27 -93,46 -47,19 -130,-14 -130,-14 0,0 -58,41 -106,54 -47,12 -131,-2 -131,-2 0,0 -60,51 -97,60 -36,9 -102,-8 -102,-8 -16,29 -120,22 -168,17l18 240c0,0 18,-8 54,-19l17 221c-8,2 -16,3 -24,5l29 137c2,0 3,-1 5,-1l42 564c-36,-1 -56,-1 -56,-1l24 314 2897 -216c-1,6 -2,11 -1,17l13 187c3,36 35,64 71,61 36,-3 63,-34 60,-70zm-5 -1038l0 0 9 111c-18,-6 -35,-12 -54,-18l-9 -127c38,21 54,34 54,34zm-96 -55l0 0 10 135c-27,-9 -56,-17 -85,-26l-11 -147c33,13 62,26 86,38zm-128 -54l0 0 11 152c-27,-8 -55,-15 -84,-23l-12 -159c31,10 59,20 85,30zm-127 -43l0 0 12 162c-27,-7 -55,-13 -84,-20l-13 -166c30,8 59,16 85,24zm-126 -35l0 0 13 168c-28,-6 -56,-11 -85,-17l-13 -171c30,7 58,13 85,20zm-126 -29l0 0 13 172c-27,-5 -55,-9 -84,-14l-13 -175c29,6 57,11 84,17zm-125 -24l0 0 13 175c-27,-4 -55,-8 -84,-12l-13 -177c29,4 57,9 84,14zm-125 -21l0 0 13 179c-27,-4 -55,-7 -84,-10l-13 -180c29,3 57,7 84,11zm-125 -17l0 0 13 181c-27,-3 -55,-5 -83,-8l-14 -182c29,3 57,6 84,9zm-125 -14l0 0 14 184c-28,-2 -55,-4 -84,-6l-13 -185c28,2 56,5 83,7zm-124 -11l0 0 14 186c-28,-1 -55,-3 -84,-4l-14 -188c29,2 57,4 84,6zm-124 -8l0 0 14 189c-28,-1 -55,-2 -84,-3l-14 -191c28,1 56,3 84,5zm-139 -8l0 0c5,0 10,1 15,1l14 193c-28,0 -55,-1 -83,-1l-15 -195c23,1 45,1 69,2zm-109 -4l0 0 14 198c-27,0 -55,0 -83,1l-15 -201c28,1 55,1 84,2zm-124 -2l0 0 15 202c-28,0 -55,1 -83,2l-15 -205c27,0 55,0 83,1zm-124 -1l0 0 16 207c-28,1 -55,3 -83,5l-16 -211c27,-1 55,-1 83,-1zm-123 1l0 0 16 213c-28,1 -56,4 -83,6l-16 -217c27,-1 54,-1 83,-2zm-124 4l0 0 17 218c-28,2 -55,5 -83,7l-17 -221c27,-2 55,-3 83,-4zm-123 6l0 0 17 223c-27,3 -55,6 -83,9l-17 -227c27,-2 55,-4 83,-5zm-123 8l0 0 17 229c-27,3 -54,6 -82,9l-17 -230c26,-3 54,-5 82,-8zm-122 12l0 0 17 232c-27,3 -55,7 -83,11l-17 -234c27,-3 54,-6 83,-9zm-123 14l0 0 17 235c-27,4 -54,8 -82,13l-17 -236c26,-4 53,-8 82,-12zm-122 18l0 0 17 236c-27,5 -54,9 -82,14l-17 -236c25,-5 53,-9 82,-14zm-122 22l0 0 17 235c-27,5 -54,10 -82,15l-17 -233c25,-5 52,-11 82,-17zm-203 49l0 0c22,-7 50,-14 81,-22l17 231c-27,5 -54,11 -82,16l-16 -225zm69 938l0 0 -42 -572c27,-6 55,-11 82,-17l44 590c-32,-1 -60,-1 -84,-1zm124 1l0 0 -44 -598c27,-5 54,-10 82,-15l45 613c-29,0 -57,0 -83,0zm124 0l0 0 -46 -620c27,-5 55,-9 82,-14l47 634c-29,0 -57,0 -83,0zm123 -1l0 0 -47 -639c27,-5 55,-9 82,-14l48 653c-28,0 -56,0 -83,0zm124 0l0 0 -49 -658c27,-4 55,-8 82,-12l50 669c-28,0 -56,0 -83,1zm123 -2l0 0 -50 -673c28,-4 55,-7 83,-10l50 682c-28,0 -56,1 -83,1zm124 -2l0 0 -51 -686c27,-3 55,-6 82,-8l52 693c-28,0 -56,1 -83,1zm123 -2l0 0 -52 -696c28,-3 56,-5 83,-8l52 702c-28,1 -56,1 -83,2zm123 -3l0 0 -52 -704c28,-2 56,-4 83,-6l53 708c-28,0 -56,1 -84,2zm124 -4l0 0 -53 -708c28,-2 56,-3 83,-5l53 711c-28,1 -56,2 -83,2zm123 -4l0 0 -53 -710c28,-1 56,-2 83,-3l53 710c-28,1 -55,2 -83,3zm123 -4l0 0 -52 -710c28,0 55,-1 83,-1l52 707c-27,1 -55,3 -83,4zm124 -6l0 0 -53 -705c28,0 56,0 83,1l52 700c-27,2 -55,3 -82,4zm123 -6l0 0 -52 -697c28,0 56,1 83,2l52 691c-28,1 -56,3 -83,4zm160 -9l0 0c-13,1 -25,2 -37,3l-51 -687c28,1 56,2 83,4l51 678c-16,1 -31,1 -46,2zm86 -5l0 0 -50 -672c28,2 56,4 84,6l49 661c-27,2 -55,4 -83,5zm123 -7l0 0 -49 -655c29,2 57,5 84,8l48 643c-27,1 -55,3 -83,4zm123 -6l0 0 -47 -636c28,3 56,7 84,10l46 621c-27,2 -55,3 -83,5zm123 -7l0 0 -46 -613c29,4 57,8 85,13l44 596c-27,1 -54,3 -83,4zm123 -6l0 0 -43 -587c28,4 57,10 84,15l42 569c-26,1 -54,2 -83,3zm123 -5l0 0 -41 -559c29,6 57,12 84,18l40 538c-26,1 -53,2 -83,3zm124 -5l0 0 -39 -527c29,7 57,14 84,21l38 503c-26,1 -54,2 -83,3zm123 -4l0 0 -37 -492c30,8 58,16 85,24l35 466c-25,0 -53,1 -83,2zm123 -3l0 0 -33 -453c30,10 58,19 85,27l32 424c-24,1 -51,1 -84,2zm124 -2l0 0 -31 -410c19,7 37,13 54,19l2 29c0,0 230,30 370,91 141,62 316,174 316,174l-665 19 6 78c0,0 -16,0 -52,0z"/>
  </g>
  <g id="_624700531952">
   <g>
    <path class="fil4" d="M13966 8453l82 -307 235 276 154 21 0 -266 -215 -358 266 20 163 -143 82 -532 -102 -185 220 31 46 -184 -164 -116 239 -319c-285,-27 -573,-41 -865,-41 -1008,0 -1976,165 -2881,470l7 16 665 70 -51 1015 164 164 -215 172 0 206 286 0 -204 348 -205 113 133 880 205 289 297 236 511 -1006 461 -133 307 -338 850 -342 -471 -57z"/>
    <path class="fil4" d="M11898 17808l-522 -138 -317 -138 30 -143 -168 -218 -179 -233 -27 0 -332 0 -10 0 -276 -235 -19 -13 -288 -202 41 -102 -727 0 -155 -123 -40 -31 -460 215 -103 215 -225 -143 -307 61 -33 -39 -132 -155 -9 -11 82 -422c23,-116 -348,73 -517,-40 -6,-5 -13,-8 -20,-11l77 -269 10 -36 143 -347 -72 -52 -307 92 -174 307 -327 -20 -256 -297 86 -508 57 -341 379 -133 266 61 123 -61 -21 -82 543 51 164 92 -11 215 133 307 113 -61 20 -249 -81 -516 542 -368 92 -519 13 -12 49 200 92 -148 -35 -153 19 -18 16 109 138 -174 -19 -64 34 -33 359 -108 30 -220 353 -163 46 -21 41 205 236 -143 419 -180 -51 -94 -184 94 -215 -41 -61 -213 184 -91 -123 -146 -527 302 312 -302 174 -128 532 36 318 -118 163 -153 -61 -252 -194 -140 -226 -263 123 -98 -225 -616 -205 366 -245 -92 41 -379 -154 -113 -72 -194 -419 -87 -103 499 -163 261 122 304 -102 179 -286 95 10 468 -215 62 -92 -210 112 -366 -286 -49 -410 -391 -235 79 71 -432 -133 -13 533 -665 276 -195 348 -184 133 -174 369 -102 112 -144 -41 -225 118 0 77 -143 -277 -164 -102 174 -256 317 -41 -214 31 -277 -174 205 -19 -94c-2015,1498 -3382,3817 -3607,6462l33 29 277 583 -72 205 665 392 338 142 174 -91 206 167 132 107 59 10c81,134 335,136 335,136l77 68 22 52 70 163 225 133 41 17 235 96 62 -92 112 -113 72 103 102 368 -206 353 -9 16 -184 317 92 174 -58 50 -95 83 256 338 317 655 338 256 277 248 132 -115 -11 10 -121 105 19 18 11 1341 -72 890 41 389 133 164 -31 317 -32 177c247,166 503,320 767,461l115 -259 -246 -143 184 -164 134 -389 -164 -164 245 51 0 -307 461 -92 61 -276 -225 -256 32 9 419 124 144 -256 347 -614 0 -235 675 -359 226 -552 0 -522 450 -563 -113 -246 -706 -287z"/>
    <path class="fil4" d="M11003 11503l-113 41 -138 204 -190 282 52 44 112 0 179 -28 98 28 -164 105 77 46 153 -151 -41 90 118 61c0,0 92,-200 77,-200 -16,0 -113,-35 -113,-35l31 -200 -248 0 0 -82 110 -205z"/>
    <path class="fil4" d="M20281 8798l-77 54 -51 46 -15 139 -128 15 -87 -123 102 -82 -107 -117 -174 -16 61 292 72 20 10 180 -174 -57 -189 195 102 133 -67 71 -256 -122 -35 97 163 71 -66 77 -179 -87 -98 -189 16 -143 -251 -159 41 -20 266 117 215 67 210 -98 26 -163 -508 -342 -203 31 -175 -63 -65 -21 -164 -52 140 -70 -290 -154 -455 159 -384 343 -353 762 -235 272 -318 194 57 578 179 87 291 -235 31 78 215 557 292 -175 5 -332 133 -77 20 -179 -127 -113 -16 -271 312 -307 16 -235 194 -18 82 -8 0 123 -292 348 41 384 225 117 400 -122 0 0 112 97 -124 104 -4 3 -256 -15 -128 77 31 117 77 6 2 69 3 110 -77 10 -82 -97 -107 117 0 144 0 15 153 123 6 66 -16 0 -481 0 -240 108 0 0 -159 -51 -236 15 -67 -84 -40 -52 87 -76 20 -325 -240 194 49 228 41 189 -153 46 -229 69 -54 195 -1 1 -93 56 -41 25 -64 128 -74 20 -56 69 -87 -2 -77 -41 12 133 -92 7 -238 -2 284 225 111 172 -75 289 -1 0 -605 -62 -123 82 40 135 6 19 5 169 -92 189 51 72 -5 163 170 0 55 0 103 123 184 -92 179 0 128 -56 67 -190 -36 -92 163 -194 139 -62 9 -80 11 -94 61 -71 113 20 108 51 133 -98 102 -76 133 36 77 149 179 179 220 107 102 87 36 144 -26 117 52 6 87 -175 -67 -66 46 -87 118 82 26 -82 -267 -138 31 -46 -179 -62 -97 -148 -118 -103 0 -138 89 -18 35 -121 -3 13 -32 108 13 -2 16 46 20 61 92 -46 72 154 189 126 11 7 87 61 99 71 23 16 0 179 94 113 29 36 87 92 -15 97 102 108 108 20 -31 -97 61 0 -5 -67 57 6 -128 -159 35 -36 -71 -138 92 61 67 -25 -57 -72 230 -21 13 25 23 47 123 -77 103 -10 10 -41 -77 -51 -17 -47 -29 -81 77 -113 0 -37 0 -116 82 -20 8 -71 2 -17 138 -158 138 77 82 30 -87 77 92 31 10 76 261 -76 0 -72 -138 21 -97 -82 118 -62 143 -51 141 -43 43 -13 -31 82 -61 158 -66 -5 5 51 117 67 205 148 159 123 -18 93 -13 66 -215 31 -266 -67 -138 -56 -251 46 -97 87 -138 -16 -52 36 16 46 -200 31 -82 51 16 67 51 15 5 92 -51 26 189 204 195 47 71 -72 190 102 138 -41 82 -66 138 -5 -20 106 -6 32 -24 113 -41 196 -11 54 -92 138 -11 16 -322 -31 -133 77 -400 -87 -32 -12 -208 -80 -235 -6 -82 103 41 82 -103 107 -225 -117 -138 -21 -41 -138 -366 -71 -3 -1 -153 -107 102 -103 -20 -81 -51 -57 56 -112 -82 20 -46 -56 -100 20 -238 46 -332 21 -384 143 -90 21 -64 15 -194 -5 -72 -77 -46 21 -51 173 -246 159 -97 307 -179 215 -153 82 -1 0 -56 79 -271 412 -71 174 -16 41 77 82 -102 443 -31 136 169 258 102 156 8 8 166 166 4 10 98 205 70 44 411 258 8 -3 315 -100 145 43 100 29 315 -116 80 -29 117 -43 31 -11 215 230 307 -29 20 -2 97 174 -23 96 -32 129 -47 190 241 307 56 72 15 52 21 70 10 35 153 528 -122 231 -107 428 -6 22 179 333 103 419 143 420 1 3 204 463 -6 215 195 61 619 -123 573 -537 126 -277 23 -51 -10 -56 286 -154 0 -210 -51 -271 599 -430 35 -184 0 -365 0 -19 -163 -455 87 -156 112 -202 114 -108 526 -496 333 -492 112 -424 -686 184 -131 -137 -48 74 12 -18 36 -56 -22 -22 5 -78 0 -9 -271 -261 -118 -46 -105 -267 -7 -19 -128 -108 -66 -317 -1 -5 -128 -92 -138 -305 -97 -233 -154 -225 31 -15 179 225 31 -51 21 -84 18 -69 2 -6 0 52 0 122 210 284 76 156 92 21 72 189 20 113 190 184 128 199 63 144 29 66 92 323 159 -31 61 -67 108 41 117 -82 195 -92 261 -71 0 -98 73 -23 147 -48 77 -21 30 -66 82 -21 41 -92 92 -5 0 -138 62 -61 117 -190 -133 -143 -174 -31 -47 -132 -127 272 2 -4 125 -268 -50 -142 -189 243 -236 18 -35 3 -8 -54 -13 -92 -5 -59 -62 -30 -4 141 -1 17 -97 -215 -177 -218 -2 -2 -46 -66 19 -55 17 -48 6 0 157 5 154 221 379 191 169 -94 102 153 430 82 13 -1 325 -22 163 0 110 146c-105,-2428 -1171,-4606 -2827,-6165z"/>
    <path class="fil4" d="M14928 9641l82 -118 -36 -179 -123 -103 -215 87 -153 -15 -6 118 -87 25 11 -87 -103 -128 -87 64c0,0 -102,115 -87,121 16,5 200,0 200,0l-20 71 -164 0 20 77 102 0 57 72 -87 25 30 72 139 0 153 61 374 -163z"/>
    <path class="fil4" d="M15724 10914l-31 103 -8 103 49 0 31 -121 0 97 -34 100 54 0 100 -30c0,0 -31,63 -28,71 2,8 18,46 18,46l56 0 -21 126 -129 -18 -11 94 48 13 -5 62 -100 46 18 53 72 -12 51 28 51 13 80 -57 -54 92 -110 0 -46 41 -113 113 49 23 97 -56 62 18 61 -77c0,0 89,0 97,2 8,3 230,-12 230,-12l95 -87 -87 -26 100 -118 -28 -87 -133 0 13 -48 -26 -44 -61 -125 -34 -18 -66 -126 -80 -79 -97 0 84 -33 -10 -36 85 -156 -82 -20 -108 20 6 -56 71 -46 -2 -52 -151 0 -31 118 -36 62 0 61 -48 51 15 69 77 -85z"/>
    <polygon class="fil4" points="15424,11194 15468,11222 15424,11247 15286,11247 15286,11304 15327,11329 15286,11370 15365,11411 15286,11493 15386,11493 15286,11529 15227,11542 15268,11629 15345,11662 15450,11606 15583,11570 15614,11560 15632,11460 15622,11347 15614,11309 15621,11304 15680,11269 15657,11150 15589,11139 15572,11136 15486,11120 "/>
    <polygon class="fil4" points="21125,19057 20997,19200 20777,19267 20680,19420 20742,19610 20619,19881 20619,20065 20793,20285 21002,20214 21325,19211 21376,19226 21376,19129 21289,18811 "/>
   </g>
  </g>
  <g id="_624700536464">
   <path class="fil6" d="M9520 1654c-58,-160 -1225,364 -1536,532 -312,169 -1606,938 -1596,1014 10,75 1308,-496 1630,-631 322,-136 1580,-699 1502,-915z"/>
   <path class="fil6" d="M8669 2000c0,0 -1671,-743 -1768,-758 -98,-15 -194,76 -194,76 0,0 829,581 834,626 5,45 -96,49 -46,88 50,40 404,426 404,426l770 -458z"/>
   <path class="fil6" d="M8124 1684c22,-61 7,-178 -68,-154 -76,24 -478,328 -448,392 30,65 496,-186 516,-238z"/>
   <path class="fil6" d="M7611 1465c22,-61 7,-178 -68,-154 -76,24 -478,328 -448,392 30,65 496,-186 516,-238z"/>
   <path class="fil6" d="M6907 2928c0,0 -540,-272 -585,-267 -44,5 -147,15 -145,51 2,36 315,390 315,390l415 -174z"/>
   <path class="fil6" d="M8670 2189c0,0 -404,1783 -450,1870 -46,87 -176,110 -176,110 0,0 29,-1012 -3,-1043 -33,-30 -97,47 -99,-16 -2,-64 -99,-579 -99,-579l827 -342z"/>
   <path class="fil6" d="M8598 2815c62,19 147,100 83,146 -65,46 -549,187 -583,124 -34,-62 446,-286 500,-270z"/>
   <path class="fil6" d="M8466 3357c62,19 148,100 83,147 -64,46 -549,186 -583,124 -33,-63 447,-287 500,-271z"/>
   <path class="fil6" d="M6919 2957c0,0 -106,595 -136,628 -31,33 -101,109 -128,86 -28,-24 -124,-486 -124,-486l388 -228z"/>
  </g>
 </g>
</svg>
