<?xml version="1.0" standalone="no"?>
<!DOCTYPE svg PUBLIC "-//W3C//DTD SVG 20010904//EN"
 "http://www.w3.org/TR/2001/REC-SVG-20010904/DTD/svg10.dtd">
<svg version="1.0" xmlns="http://www.w3.org/2000/svg"
 width="1200.000000pt" height="1200.000000pt" viewBox="0 0 1200.000000 1200.000000"
 preserveAspectRatio="xMidYMid meet">
<metadata>
Created by potrace 1.11, written by Peter Selinger 2001-2013
</metadata>
<g transform="translate(0.000000,1200.000000) scale(0.100000,-0.100000)"
fill="#000000" stroke="none">
<path d="M3755 9765 c-1344 -480 -2221 -798 -2223 -807 -3 -14 675 -5898 680
-5903 10 -10 3782 -2095 3789 -2095 5 0 859 471 1898 1046 1816 1006 1889
1048 1895 1078 22 129 677 5879 670 5885 -16 14 -4449 1591 -4470 1590 -10 -1
-1018 -358 -2239 -794z m3636 -3405 l1387 -3120 -517 0 -517 0 -280 700 -279
700 -1190 0 -1190 0 -279 -700 -280 -700 -513 0 c-282 0 -513 3 -513 8 0 11
2774 6232 2780 6232 3 0 629 -1404 1391 -3120z"/>
<path d="M5588 6483 l-406 -978 409 -3 c225 -1 593 -1 818 0 l410 3 -407 978
c-223 537 -409 977 -412 977 -3 0 -189 -440 -412 -977z"/>
</g>
</svg>
